<svg width="358" height="357" viewBox="0 0 358 357" fill="none" xmlns="http://www.w3.org/2000/svg">
<mask id="mask0_3_91" style="mask-type:luminance" maskUnits="userSpaceOnUse" x="52" y="52" width="253" height="253">
<path d="M267.971 267.188C317.156 218.003 317.156 138.257 267.971 89.0717C218.786 39.8863 139.04 39.8863 89.8547 89.0717C40.6692 138.257 40.6692 218.003 89.8547 267.188C139.04 316.373 218.786 316.373 267.971 267.188Z" fill="white"/>
</mask>
<g mask="url(#mask0_3_91)">
<path d="M54.1877 257.364L51.9096 259.645L60.6462 268.37L62.9243 266.088L54.1877 257.364Z" fill="#FACD49"/>
<path d="M51.904 266.108L54.1853 268.386L62.9096 259.65L60.6284 257.372L51.904 266.108Z" fill="#FACD49"/>
<path d="M54.2181 280.446L51.94 282.727L60.6765 291.451L62.9546 289.17L54.2181 280.446Z" fill="#FACD49"/>
<path d="M51.9223 289.177L54.2036 291.456L62.9279 282.719L60.6466 280.441L51.9223 289.177Z" fill="#FACD49"/>
<path d="M54.2295 301.905L51.9514 304.186L60.6879 312.911L62.966 310.629L54.2295 301.905Z" fill="#FACD49"/>
<path d="M51.9475 310.672L54.2288 312.95L62.9531 304.213L60.6719 301.935L51.9475 310.672Z" fill="#FACD49"/>
<path d="M54.1556 189.011L51.8775 191.292L60.6141 200.017L62.8922 197.736L54.1556 189.011Z" fill="#FACD49"/>
<path d="M51.8555 197.728L54.1368 200.006L62.8611 191.27L60.5799 188.992L51.8555 197.728Z" fill="#FACD49"/>
<path d="M54.1559 212.081L51.8778 214.362L60.6143 223.086L62.8924 220.805L54.1559 212.081Z" fill="#FACD49"/>
<path d="M51.8791 220.828L54.1604 223.106L62.8847 214.369L60.6034 212.091L51.8791 220.828Z" fill="#FACD49"/>
<path d="M54.1791 233.545L51.901 235.826L60.6375 244.55L62.9156 242.269L54.1791 233.545Z" fill="#FACD49"/>
<path d="M51.8911 242.291L54.1723 244.569L62.8967 235.833L60.6154 233.555L51.8911 242.291Z" fill="#FACD49"/>
<path d="M54.1073 120.615L51.8292 122.896L60.5658 131.621L62.8439 129.339L54.1073 120.615Z" fill="#FACD49"/>
<path d="M51.8184 129.365L54.0997 131.643L62.8241 122.907L60.5428 120.628L51.8184 129.365Z" fill="#FACD49"/>
<path d="M54.1071 143.727L51.829 146.008L60.5656 154.732L62.8437 152.451L54.1071 143.727Z" fill="#FACD49"/>
<path d="M51.8485 152.446L54.1298 154.724L62.8541 145.988L60.5729 143.71L51.8485 152.446Z" fill="#FACD49"/>
<path d="M54.1305 165.191L51.8524 167.472L60.589 176.197L62.8671 173.915L54.1305 165.191Z" fill="#FACD49"/>
<path d="M51.8615 173.91L54.1428 176.188L62.8671 167.451L60.5859 165.173L51.8615 173.91Z" fill="#FACD49"/>
<path d="M54.0458 52.2668L51.7677 54.5481L60.5043 63.2725L62.7824 60.9912L54.0458 52.2668Z" fill="#FACD49"/>
<path d="M51.776 60.9963L54.0573 63.2744L62.7816 54.5379L60.5003 52.2598L51.776 60.9963Z" fill="#FACD49"/>
<path d="M54.0769 75.3305L51.7988 77.6118L60.5354 86.3362L62.8135 84.0549L54.0769 75.3305Z" fill="#FACD49"/>
<path d="M51.7941 84.0654L54.0754 86.3435L62.7997 77.607L60.5185 75.3289L51.7941 84.0654Z" fill="#FACD49"/>
<path d="M54.0824 96.7949L51.8043 99.0762L60.5408 107.801L62.8189 105.519L54.0824 96.7949Z" fill="#FACD49"/>
<path d="M51.8073 105.547L54.0886 107.825L62.8129 99.0884L60.5316 96.8103L51.8073 105.547Z" fill="#FACD49"/>
<path d="M78.4616 257.363L76.1835 259.644L84.9201 268.368L87.1982 266.087L78.4616 257.363Z" fill="#FACD49"/>
<path d="M76.1701 266.085L78.4514 268.363L87.1758 259.627L84.8945 257.349L76.1701 266.085Z" fill="#FACD49"/>
<path d="M101.421 257.339L99.1429 259.62L107.879 268.344L110.158 266.063L101.421 257.339Z" fill="#FACD49"/>
<path d="M99.1399 266.066L101.421 268.344L110.146 259.608L107.864 257.33L99.1399 266.066Z" fill="#FACD49"/>
<path d="M124.349 257.32L122.071 259.601L130.807 268.326L133.086 266.044L124.349 257.32Z" fill="#FACD49"/>
<path d="M122.096 266.06L124.378 268.338L133.102 259.602L130.821 257.323L122.096 266.06Z" fill="#FACD49"/>
<path d="M147.307 257.325L145.029 259.606L153.766 268.33L156.044 266.049L147.307 257.325Z" fill="#FACD49"/>
<path d="M145.004 266.041L147.286 268.319L156.01 259.583L153.729 257.305L145.004 266.041Z" fill="#FACD49"/>
<path d="M170.236 257.288L167.958 259.569L176.694 268.294L178.973 266.012L170.236 257.288Z" fill="#FACD49"/>
<path d="M167.962 266.035L170.243 268.313L178.968 259.576L176.686 257.298L167.962 266.035Z" fill="#FACD49"/>
<path d="M78.4932 280.409L76.2151 282.69L84.9516 291.414L87.2297 289.133L78.4932 280.409Z" fill="#FACD49"/>
<path d="M76.1887 289.172L78.47 291.45L87.1943 282.713L84.9131 280.435L76.1887 289.172Z" fill="#FACD49"/>
<path d="M101.421 280.407L99.1427 282.689L107.879 291.413L110.157 289.132L101.421 280.407Z" fill="#FACD49"/>
<path d="M99.1267 289.165L101.408 291.443L110.132 282.707L107.851 280.429L99.1267 289.165Z" fill="#FACD49"/>
<path d="M124.379 280.419L122.101 282.701L130.838 291.425L133.116 289.144L124.379 280.419Z" fill="#FACD49"/>
<path d="M122.096 289.146L124.378 291.425L133.102 282.688L130.821 280.41L122.096 289.146Z" fill="#FACD49"/>
<path d="M147.32 280.388L145.042 282.669L153.779 291.394L156.057 289.113L147.32 280.388Z" fill="#FACD49"/>
<path d="M145.023 289.11L147.304 291.388L156.028 282.652L153.747 280.374L145.023 289.11Z" fill="#FACD49"/>
<path d="M170.267 280.387L167.989 282.668L176.726 291.393L179.004 289.112L170.267 280.387Z" fill="#FACD49"/>
<path d="M167.962 289.103L170.243 291.382L178.967 282.645L176.686 280.367L167.962 289.103Z" fill="#FACD49"/>
<path d="M78.4984 301.891L76.2203 304.172L84.9568 312.896L87.2349 310.615L78.4984 301.891Z" fill="#FACD49"/>
<path d="M76.219 310.636L78.5002 312.914L87.2246 304.177L84.9433 301.899L76.219 310.636Z" fill="#FACD49"/>
<path d="M101.444 301.89L99.1663 304.171L107.903 312.896L110.181 310.614L101.444 301.89Z" fill="#FACD49"/>
<path d="M99.1399 310.629L101.421 312.907L110.146 304.171L107.864 301.893L99.1399 310.629Z" fill="#FACD49"/>
<path d="M124.385 301.884L122.107 304.165L130.844 312.889L133.122 310.608L124.385 301.884Z" fill="#FACD49"/>
<path d="M122.109 310.61L124.391 312.888L133.115 304.152L130.834 301.874L122.109 310.61Z" fill="#FACD49"/>
<path d="M147.331 301.865L145.053 304.146L153.79 312.871L156.068 310.59L147.331 301.865Z" fill="#FACD49"/>
<path d="M145.048 310.604L147.329 312.883L156.053 304.146L153.772 301.868L145.048 310.604Z" fill="#FACD49"/>
<path d="M170.272 301.852L167.994 304.133L176.731 312.857L179.009 310.576L170.272 301.852Z" fill="#FACD49"/>
<path d="M167.974 310.568L170.255 312.846L178.979 304.109L176.698 301.831L167.974 310.568Z" fill="#FACD49"/>
<path d="M78.4132 188.991L76.1351 191.272L84.8716 199.997L87.1497 197.715L78.4132 188.991Z" fill="#FACD49"/>
<path d="M76.1407 197.721L78.422 200L87.1464 191.263L84.8651 188.985L76.1407 197.721Z" fill="#FACD49"/>
<path d="M101.372 188.96L99.0941 191.241L107.831 199.965L110.109 197.684L101.372 188.96Z" fill="#FACD49"/>
<path d="M99.0841 197.702L101.365 199.98L110.09 191.244L107.808 188.966L99.0841 197.702Z" fill="#FACD49"/>
<path d="M124.317 188.959L122.039 191.24L130.776 199.965L133.054 197.683L124.317 188.959Z" fill="#FACD49"/>
<path d="M122.022 197.697L124.304 199.975L133.028 191.238L130.747 188.96L122.022 197.697Z" fill="#FACD49"/>
<path d="M147.246 188.923L144.968 191.204L153.705 199.928L155.983 197.647L147.246 188.923Z" fill="#FACD49"/>
<path d="M144.98 197.672L147.261 199.95L155.986 191.214L153.704 188.936L144.98 197.672Z" fill="#FACD49"/>
<path d="M170.193 188.922L167.915 191.203L176.651 199.927L178.929 197.646L170.193 188.922Z" fill="#FACD49"/>
<path d="M167.919 197.666L170.201 199.944L178.925 191.208L176.644 188.93L167.919 197.666Z" fill="#FACD49"/>
<path d="M78.4433 212.072L76.1652 214.354L84.9018 223.078L87.1799 220.797L78.4433 212.072Z" fill="#FACD49"/>
<path d="M76.1579 220.791L78.4391 223.069L87.1635 214.332L84.8822 212.054L76.1579 220.791Z" fill="#FACD49"/>
<path d="M101.385 212.041L99.1064 214.323L107.843 223.047L110.121 220.766L101.385 212.041Z" fill="#FACD49"/>
<path d="M99.1017 220.771L101.383 223.05L110.107 214.313L107.826 212.035L99.1017 220.771Z" fill="#FACD49"/>
<path d="M124.33 212.023L122.052 214.304L130.789 223.029L133.067 220.747L124.33 212.023Z" fill="#FACD49"/>
<path d="M122.041 220.765L124.322 223.043L133.046 214.307L130.765 212.029L122.041 220.765Z" fill="#FACD49"/>
<path d="M147.277 212.022L144.999 214.303L153.735 223.028L156.013 220.746L147.277 212.022Z" fill="#FACD49"/>
<path d="M144.98 220.759L147.262 223.037L155.986 214.301L153.705 212.022L144.98 220.759Z" fill="#FACD49"/>
<path d="M170.205 212.003L167.927 214.285L176.663 223.009L178.941 220.728L170.205 212.003Z" fill="#FACD49"/>
<path d="M167.937 220.752L170.218 223.031L178.942 214.294L176.661 212.016L167.937 220.752Z" fill="#FACD49"/>
<path d="M78.4484 233.554L76.1703 235.836L84.9069 244.56L87.185 242.279L78.4484 233.554Z" fill="#FACD49"/>
<path d="M76.1699 242.254L78.4512 244.532L87.1755 235.796L84.8943 233.518L76.1699 242.254Z" fill="#FACD49"/>
<path d="M101.395 233.519L99.1169 235.8L107.853 244.524L110.132 242.243L101.395 233.519Z" fill="#FACD49"/>
<path d="M99.1269 242.248L101.408 244.526L110.133 235.79L107.851 233.511L99.1269 242.248Z" fill="#FACD49"/>
<path d="M124.353 233.505L122.075 235.786L130.811 244.51L133.089 242.229L124.353 233.505Z" fill="#FACD49"/>
<path d="M122.053 242.229L124.334 244.507L133.058 235.771L130.777 233.493L122.053 242.229Z" fill="#FACD49"/>
<path d="M147.282 233.487L145.004 235.768L153.74 244.492L156.019 242.211L147.282 233.487Z" fill="#FACD49"/>
<path d="M144.992 242.223L147.273 244.501L155.998 235.765L153.717 233.487L144.992 242.223Z" fill="#FACD49"/>
<path d="M170.228 233.468L167.95 235.749L176.687 244.474L178.965 242.192L170.228 233.468Z" fill="#FACD49"/>
<path d="M167.949 242.217L170.23 244.495L178.954 235.758L176.673 233.48L167.949 242.217Z" fill="#FACD49"/>
<path d="M78.3825 120.613L76.1044 122.894L84.841 131.618L87.1191 129.337L78.3825 120.613Z" fill="#FACD49"/>
<path d="M76.1031 129.341L78.3844 131.619L87.1088 122.882L84.8275 120.604L76.1031 129.341Z" fill="#FACD49"/>
<path d="M101.311 120.612L99.033 122.893L107.77 131.618L110.048 129.336L101.311 120.612Z" fill="#FACD49"/>
<path d="M99.0238 129.335L101.305 131.613L110.029 122.876L107.748 120.598L99.0238 129.335Z" fill="#FACD49"/>
<path d="M124.257 120.593L121.979 122.875L130.716 131.599L132.994 129.318L124.257 120.593Z" fill="#FACD49"/>
<path d="M121.981 129.328L124.263 131.606L132.987 122.87L130.706 120.592L121.981 129.328Z" fill="#FACD49"/>
<path d="M147.197 120.562L144.919 122.844L153.656 131.568L155.934 129.287L147.197 120.562Z" fill="#FACD49"/>
<path d="M144.907 129.31L147.188 131.588L155.912 122.851L153.631 120.573L144.907 129.31Z" fill="#FACD49"/>
<path d="M170.157 120.556L167.879 122.837L176.615 131.562L178.893 129.28L170.157 120.556Z" fill="#FACD49"/>
<path d="M167.858 129.29L170.139 131.568L178.864 122.832L176.583 120.554L167.858 129.29Z" fill="#FACD49"/>
<path d="M78.3955 143.694L76.1174 145.976L84.8539 154.7L87.132 152.419L78.3955 143.694Z" fill="#FACD49"/>
<path d="M76.1031 152.427L78.3844 154.705L87.1088 145.969L84.8275 143.691L76.1031 152.427Z" fill="#FACD49"/>
<path d="M101.341 143.676L99.0627 145.957L107.799 154.681L110.077 152.4L101.341 143.676Z" fill="#FACD49"/>
<path d="M99.0597 152.421L101.341 154.699L110.065 145.962L107.784 143.684L99.0597 152.421Z" fill="#FACD49"/>
<path d="M124.269 143.675L121.991 145.956L130.728 154.68L133.006 152.399L124.269 143.675Z" fill="#FACD49"/>
<path d="M121.98 152.415L124.262 154.693L132.986 145.956L130.705 143.678L121.98 152.415Z" fill="#FACD49"/>
<path d="M147.229 143.626L144.95 145.907L153.687 154.631L155.965 152.35L147.229 143.626Z" fill="#FACD49"/>
<path d="M144.925 152.378L147.206 154.656L155.931 145.919L153.649 143.641L144.925 152.378Z" fill="#FACD49"/>
<path d="M170.156 143.607L167.878 145.889L176.615 154.613L178.893 152.332L170.156 143.607Z" fill="#FACD49"/>
<path d="M167.882 152.372L170.164 154.65L178.888 145.913L176.607 143.635L167.882 152.372Z" fill="#FACD49"/>
<path d="M78.4056 165.171L76.1275 167.452L84.8641 176.177L87.1421 173.895L78.4056 165.171Z" fill="#FACD49"/>
<path d="M76.128 173.904L78.4092 176.182L87.1336 167.445L84.8523 165.167L76.128 173.904Z" fill="#FACD49"/>
<path d="M101.347 165.14L99.0684 167.421L107.805 176.146L110.083 173.864L101.347 165.14Z" fill="#FACD49"/>
<path d="M99.0541 173.885L101.335 176.163L110.06 167.427L107.778 165.148L99.0541 173.885Z" fill="#FACD49"/>
<path d="M124.293 165.122L122.015 167.403L130.751 176.127L133.029 173.846L124.293 165.122Z" fill="#FACD49"/>
<path d="M121.994 173.879L124.275 176.157L132.999 167.42L130.718 165.142L121.994 173.879Z" fill="#FACD49"/>
<path d="M147.222 165.103L144.944 167.384L153.68 176.109L155.958 173.827L147.222 165.103Z" fill="#FACD49"/>
<path d="M144.968 173.855L147.25 176.133L155.974 167.396L153.693 165.118L144.968 173.855Z" fill="#FACD49"/>
<path d="M170.18 165.089L167.902 167.371L176.638 176.095L178.916 173.814L170.18 165.089Z" fill="#FACD49"/>
<path d="M167.894 173.835L170.175 176.114L178.9 167.377L176.619 165.099L167.894 173.835Z" fill="#FACD49"/>
<path d="M78.3211 52.2468L76.043 54.5281L84.7796 63.2524L87.0577 60.9712L78.3211 52.2468Z" fill="#FACD49"/>
<path d="M76.0426 60.9905L78.3239 63.2686L87.0482 54.532L84.7669 52.2539L76.0426 60.9905Z" fill="#FACD49"/>
<path d="M101.262 52.2158L98.9835 54.4971L107.72 63.2214L109.998 60.9401L101.262 52.2158Z" fill="#FACD49"/>
<path d="M98.9865 60.9714L101.268 63.2495L109.992 54.513L107.711 52.2349L98.9865 60.9714Z" fill="#FACD49"/>
<path d="M124.221 52.2097L121.943 54.491L130.679 63.2153L132.958 60.934L124.221 52.2097Z" fill="#FACD49"/>
<path d="M121.938 60.9524L124.219 63.2305L132.944 54.4939L130.662 52.2158L121.938 60.9524Z" fill="#FACD49"/>
<path d="M147.166 52.209L144.888 54.4902L153.625 63.2146L155.903 60.9333L147.166 52.209Z" fill="#FACD49"/>
<path d="M144.895 60.9284L147.176 63.2065L155.9 54.47L153.619 52.1919L144.895 60.9284Z" fill="#FACD49"/>
<path d="M170.095 52.1902L167.817 54.4714L176.554 63.1958L178.832 60.9145L170.095 52.1902Z" fill="#FACD49"/>
<path d="M167.834 60.9221L170.115 63.2002L178.84 54.4636L176.558 52.1856L167.834 60.9221Z" fill="#FACD49"/>
<path d="M78.3338 75.3108L76.0557 77.592L84.7923 86.3164L87.0704 84.0351L78.3338 75.3108Z" fill="#FACD49"/>
<path d="M76.0605 84.0588L78.3418 86.3369L87.0662 77.6004L84.7849 75.3223L76.0605 84.0588Z" fill="#FACD49"/>
<path d="M101.28 75.3098L99.0018 77.5911L107.738 86.3154L110.016 84.0341L101.28 75.3098Z" fill="#FACD49"/>
<path d="M99.0178 84.053L101.299 86.3311L110.023 77.5945L107.742 75.3164L99.0178 84.053Z" fill="#FACD49"/>
<path d="M124.238 75.2788L121.96 77.5601L130.697 86.2844L132.975 84.0031L124.238 75.2788Z" fill="#FACD49"/>
<path d="M121.943 84.0339L124.224 86.312L132.949 77.5755L130.667 75.2974L121.943 84.0339Z" fill="#FACD49"/>
<path d="M147.179 75.2724L144.901 77.5537L153.638 86.2781L155.916 83.9968L147.179 75.2724Z" fill="#FACD49"/>
<path d="M144.895 84.0146L147.176 86.2927L155.9 77.5562L153.619 75.2781L144.895 84.0146Z" fill="#FACD49"/>
<path d="M170.125 75.2717L167.847 77.553L176.584 86.2773L178.862 83.9961L170.125 75.2717Z" fill="#FACD49"/>
<path d="M167.852 84.0088L170.133 86.2869L178.858 77.5503L176.577 75.2722L167.852 84.0088Z" fill="#FACD49"/>
<path d="M78.3574 96.7929L76.0793 99.0742L84.8159 107.799L87.094 105.517L78.3574 96.7929Z" fill="#FACD49"/>
<path d="M76.0728 105.523L78.3541 107.801L87.0785 99.0645L84.7972 96.7864L76.0728 105.523Z" fill="#FACD49"/>
<path d="M101.303 96.7739L99.0251 99.0552L107.762 107.78L110.04 105.498L101.303 96.7739Z" fill="#FACD49"/>
<path d="M99.0298 105.517L101.311 107.795L110.035 99.0581L107.754 96.78L99.0298 105.517Z" fill="#FACD49"/>
<path d="M124.231 96.7553L121.953 99.0366L130.69 107.761L132.968 105.48L124.231 96.7553Z" fill="#FACD49"/>
<path d="M121.968 105.51L124.25 107.788L132.974 99.0515L130.693 96.7734L121.968 105.51Z" fill="#FACD49"/>
<path d="M147.19 96.7419L144.911 99.0232L153.648 107.748L155.926 105.466L147.19 96.7419Z" fill="#FACD49"/>
<path d="M144.895 105.491L147.176 107.769L155.9 99.0325L153.619 96.7544L144.895 105.491Z" fill="#FACD49"/>
<path d="M170.13 96.7358L167.852 99.0171L176.589 107.741L178.867 105.46L170.13 96.7358Z" fill="#FACD49"/>
<path d="M167.864 105.455L170.145 107.733L178.87 98.9961L176.588 96.718L167.864 105.455Z" fill="#FACD49"/>
<path d="M190.906 257.279L188.628 259.561L197.365 268.285L199.643 266.004L190.906 257.279Z" fill="#FACD49"/>
<path d="M188.624 266.019L190.906 268.297L199.63 259.56L197.349 257.282L188.624 266.019Z" fill="#FACD49"/>
<path d="M213.852 257.261L211.574 259.542L220.311 268.267L222.589 265.985L213.852 257.261Z" fill="#FACD49"/>
<path d="M211.582 266.012L213.863 268.29L222.587 259.554L220.306 257.276L211.582 266.012Z" fill="#FACD49"/>
<path d="M236.824 257.26L234.546 259.541L243.282 268.266L245.56 265.984L236.824 257.26Z" fill="#FACD49"/>
<path d="M234.52 265.981L236.802 268.259L245.526 259.522L243.245 257.244L234.52 265.981Z" fill="#FACD49"/>
<path d="M259.752 257.241L257.474 259.523L266.21 268.247L268.488 265.966L259.752 257.241Z" fill="#FACD49"/>
<path d="M257.458 265.975L259.74 268.253L268.464 259.516L266.183 257.238L257.458 265.975Z" fill="#FACD49"/>
<path d="M282.698 257.205L280.42 259.486L289.156 268.211L291.434 265.929L282.698 257.205Z" fill="#FACD49"/>
<path d="M280.434 265.968L282.715 268.246L291.44 259.51L289.158 257.231L280.434 265.968Z" fill="#FACD49"/>
<path d="M190.937 280.361L188.659 282.642L197.395 291.367L199.673 289.085L190.937 280.361Z" fill="#FACD49"/>
<path d="M188.643 289.105L190.924 291.383L199.648 282.647L197.367 280.368L188.643 289.105Z" fill="#FACD49"/>
<path d="M213.864 280.342L211.586 282.624L220.323 291.348L222.601 289.067L213.864 280.342Z" fill="#FACD49"/>
<path d="M211.581 289.099L213.862 291.377L222.586 282.64L220.305 280.362L211.581 289.099Z" fill="#FACD49"/>
<path d="M236.824 280.311L234.546 282.593L243.282 291.317L245.56 289.036L236.824 280.311Z" fill="#FACD49"/>
<path d="M234.525 289.062L236.807 291.34L245.531 282.604L243.25 280.325L234.525 289.062Z" fill="#FACD49"/>
<path d="M259.781 280.305L257.503 282.586L266.24 291.311L268.518 289.029L259.781 280.305Z" fill="#FACD49"/>
<path d="M257.494 289.043L259.775 291.321L268.5 282.584L266.218 280.306L257.494 289.043Z" fill="#FACD49"/>
<path d="M282.71 280.304L280.432 282.586L289.168 291.31L291.446 289.029L282.71 280.304Z" fill="#FACD49"/>
<path d="M280.433 289.037L282.714 291.315L291.439 282.579L289.157 280.301L280.433 289.037Z" fill="#FACD49"/>
<path d="M190.942 301.843L188.664 304.125L197.4 312.849L199.678 310.568L190.942 301.843Z" fill="#FACD49"/>
<path d="M188.654 310.569L190.936 312.847L199.66 304.111L197.379 301.833L188.654 310.569Z" fill="#FACD49"/>
<path d="M213.888 301.807L211.61 304.088L220.347 312.812L222.625 310.531L213.888 301.807Z" fill="#FACD49"/>
<path d="M211.594 310.562L213.875 312.841L222.6 304.104L220.318 301.826L211.594 310.562Z" fill="#FACD49"/>
<path d="M236.834 301.77L234.556 304.052L243.293 312.776L245.571 310.495L236.834 301.77Z" fill="#FACD49"/>
<path d="M234.569 310.539L236.85 312.817L245.574 304.08L243.293 301.802L234.569 310.539Z" fill="#FACD49"/>
<path d="M259.774 301.757L257.496 304.039L266.233 312.763L268.511 310.482L259.774 301.757Z" fill="#FACD49"/>
<path d="M257.494 310.52L259.775 312.798L268.5 304.061L266.218 301.783L257.494 310.52Z" fill="#FACD49"/>
<path d="M282.733 301.769L280.455 304.05L289.192 312.775L291.47 310.493L282.733 301.769Z" fill="#FACD49"/>
<path d="M280.428 310.501L282.709 312.779L291.434 304.043L289.152 301.765L280.428 310.501Z" fill="#FACD49"/>
<path d="M190.875 188.883L188.597 191.165L197.333 199.889L199.612 197.608L190.875 188.883Z" fill="#FACD49"/>
<path d="M188.587 197.655L190.868 199.933L199.593 191.197L197.311 188.919L188.587 197.655Z" fill="#FACD49"/>
<path d="M213.816 188.895L211.538 191.176L220.275 199.901L222.553 197.619L213.816 188.895Z" fill="#FACD49"/>
<path d="M211.539 197.619L213.821 199.897L222.545 191.16L220.264 188.882L211.539 197.619Z" fill="#FACD49"/>
<path d="M236.762 188.876L234.484 191.158L243.221 199.882L245.499 197.601L236.762 188.876Z" fill="#FACD49"/>
<path d="M234.46 197.63L236.741 199.908L245.465 191.172L243.184 188.894L234.46 197.63Z" fill="#FACD49"/>
<path d="M259.69 188.858L257.412 191.139L266.148 199.864L268.427 197.582L259.69 188.858Z" fill="#FACD49"/>
<path d="M257.416 197.606L259.697 199.884L268.421 191.147L266.14 188.869L257.416 197.606Z" fill="#FACD49"/>
<path d="M282.65 188.844L280.372 191.125L289.108 199.85L291.386 197.569L282.65 188.844Z" fill="#FACD49"/>
<path d="M280.361 197.587L282.642 199.865L291.366 191.129L289.085 188.851L280.361 197.587Z" fill="#FACD49"/>
<path d="M190.875 211.978L188.597 214.259L197.334 222.983L199.612 220.702L190.875 211.978Z" fill="#FACD49"/>
<path d="M188.6 220.737L190.881 223.015L199.606 214.278L197.324 212L188.6 220.737Z" fill="#FACD49"/>
<path d="M213.833 211.964L211.555 214.245L220.292 222.969L222.57 220.688L213.833 211.964Z" fill="#FACD49"/>
<path d="M211.543 220.718L213.825 222.996L222.549 214.259L220.268 211.981L211.543 220.718Z" fill="#FACD49"/>
<path d="M236.774 211.958L234.496 214.239L243.232 222.964L245.511 220.682L236.774 211.958Z" fill="#FACD49"/>
<path d="M234.495 220.699L236.776 222.977L245.5 214.241L243.219 211.962L234.495 220.699Z" fill="#FACD49"/>
<path d="M259.72 211.939L257.442 214.221L266.179 222.945L268.457 220.664L259.72 211.939Z" fill="#FACD49"/>
<path d="M257.434 220.693L259.715 222.971L268.44 214.234L266.158 211.956L257.434 220.693Z" fill="#FACD49"/>
<path d="M282.662 211.908L280.384 214.189L289.121 222.914L291.399 220.633L282.662 211.908Z" fill="#FACD49"/>
<path d="M280.379 220.656L282.66 222.934L291.384 214.198L289.103 211.919L280.379 220.656Z" fill="#FACD49"/>
<path d="M190.898 233.459L188.62 235.741L197.357 244.465L199.635 242.184L190.898 233.459Z" fill="#FACD49"/>
<path d="M188.595 242.2L190.876 244.479L199.6 235.742L197.319 233.464L188.595 242.2Z" fill="#FACD49"/>
<path d="M213.839 233.428L211.561 235.71L220.298 244.434L222.576 242.153L213.839 233.428Z" fill="#FACD49"/>
<path d="M211.538 242.182L213.819 244.46L222.544 235.723L220.262 233.445L211.538 242.182Z" fill="#FACD49"/>
<path d="M236.798 233.423L234.52 235.704L243.257 244.428L245.535 242.147L236.798 233.423Z" fill="#FACD49"/>
<path d="M234.508 242.163L236.789 244.441L245.513 235.705L243.232 233.427L234.508 242.163Z" fill="#FACD49"/>
<path d="M259.726 233.404L257.448 235.685L266.184 244.409L268.462 242.128L259.726 233.404Z" fill="#FACD49"/>
<path d="M257.446 242.157L259.728 244.435L268.452 235.698L266.171 233.42L257.446 242.157Z" fill="#FACD49"/>
<path d="M282.672 233.385L280.394 235.667L289.131 244.391L291.409 242.11L282.672 233.385Z" fill="#FACD49"/>
<path d="M280.404 242.133L282.685 244.411L291.409 235.674L289.128 233.396L280.404 242.133Z" fill="#FACD49"/>
<path d="M190.827 120.548L188.549 122.829L197.286 131.554L199.564 129.272L190.827 120.548Z" fill="#FACD49"/>
<path d="M188.54 129.275L190.821 131.553L199.546 122.816L197.264 120.538L188.54 129.275Z" fill="#FACD49"/>
<path d="M213.755 120.512L211.477 122.793L220.213 131.517L222.491 129.236L213.755 120.512Z" fill="#FACD49"/>
<path d="M211.479 129.269L213.76 131.547L222.484 122.81L220.203 120.532L211.479 129.269Z" fill="#FACD49"/>
<path d="M236.714 120.498L234.436 122.78L243.172 131.504L245.451 129.223L236.714 120.498Z" fill="#FACD49"/>
<path d="M234.441 129.25L236.722 131.528L245.446 122.791L243.165 120.513L234.441 129.25Z" fill="#FACD49"/>
<path d="M259.659 120.48L257.381 122.761L266.118 131.485L268.396 129.204L259.659 120.48Z" fill="#FACD49"/>
<path d="M257.379 129.243L259.661 131.521L268.385 122.785L266.104 120.507L257.379 129.243Z" fill="#FACD49"/>
<path d="M282.605 120.479L280.327 122.76L289.064 131.485L291.342 129.203L282.605 120.479Z" fill="#FACD49"/>
<path d="M280.3 129.237L282.581 131.515L291.306 122.779L289.024 120.501L280.3 129.237Z" fill="#FACD49"/>
<path d="M190.84 143.612L188.562 145.893L197.298 154.617L199.576 152.336L190.84 143.612Z" fill="#FACD49"/>
<path d="M188.558 152.361L190.839 154.639L199.563 145.903L197.282 143.625L188.558 152.361Z" fill="#FACD49"/>
<path d="M213.785 143.593L211.507 145.875L220.244 154.599L222.522 152.318L213.785 143.593Z" fill="#FACD49"/>
<path d="M211.514 152.337L213.796 154.615L222.52 145.879L220.239 143.601L211.514 152.337Z" fill="#FACD49"/>
<path d="M236.731 143.593L234.453 145.874L243.19 154.598L245.468 152.317L236.731 143.593Z" fill="#FACD49"/>
<path d="M234.436 152.331L236.717 154.609L245.441 145.873L243.16 143.595L234.436 152.331Z" fill="#FACD49"/>
<path d="M259.673 143.561L257.394 145.843L266.131 154.567L268.409 152.286L259.673 143.561Z" fill="#FACD49"/>
<path d="M257.379 152.312L259.661 154.59L268.385 145.854L266.104 143.575L257.379 152.312Z" fill="#FACD49"/>
<path d="M282.619 143.542L280.341 145.824L289.077 154.548L291.355 152.267L282.619 143.542Z" fill="#FACD49"/>
<path d="M280.336 152.305L282.617 154.583L291.341 145.847L289.06 143.569L280.336 152.305Z" fill="#FACD49"/>
<path d="M190.862 165.076L188.584 167.358L197.321 176.082L199.599 173.801L190.862 165.076Z" fill="#FACD49"/>
<path d="M188.588 173.808L190.869 176.086L199.594 167.349L197.312 165.071L188.588 173.808Z" fill="#FACD49"/>
<path d="M213.809 165.075L211.531 167.357L220.267 176.081L222.545 173.8L213.809 165.075Z" fill="#FACD49"/>
<path d="M211.527 173.801L213.808 176.079L222.532 167.343L220.251 165.065L211.527 173.801Z" fill="#FACD49"/>
<path d="M236.736 165.074L234.458 167.356L243.195 176.08L245.473 173.799L236.736 165.074Z" fill="#FACD49"/>
<path d="M234.448 173.813L236.729 176.091L245.453 167.354L243.172 165.076L234.448 173.813Z" fill="#FACD49"/>
<path d="M259.696 165.026L257.418 167.307L266.154 176.031L268.432 173.75L259.696 165.026Z" fill="#FACD49"/>
<path d="M257.392 173.776L259.673 176.054L268.398 167.318L266.116 165.04L257.392 173.776Z" fill="#FACD49"/>
<path d="M282.624 165.025L280.346 167.306L289.083 176.031L291.361 173.749L282.624 165.025Z" fill="#FACD49"/>
<path d="M280.349 173.77L282.631 176.048L291.355 167.311L289.074 165.033L280.349 173.77Z" fill="#FACD49"/>
<path d="M190.783 52.1819L188.505 54.4631L197.242 63.1875L199.52 60.9062L190.783 52.1819Z" fill="#FACD49"/>
<path d="M188.497 60.9236L190.778 63.2017L199.503 54.4651L197.221 52.187L188.497 60.9236Z" fill="#FACD49"/>
<path d="M213.724 52.1508L211.446 54.4321L220.183 63.1565L222.461 60.8752L213.724 52.1508Z" fill="#FACD49"/>
<path d="M211.441 60.8874L213.723 63.1655L222.447 54.429L220.166 52.1509L211.441 60.8874Z" fill="#FACD49"/>
<path d="M236.652 52.1323L234.374 54.4136L243.111 63.1379L245.389 60.8567L236.652 52.1323Z" fill="#FACD49"/>
<path d="M234.38 60.8811L236.661 63.1592L245.385 54.4226L243.104 52.1445L234.38 60.8811Z" fill="#FACD49"/>
<path d="M259.598 52.1138L257.32 54.395L266.057 63.1194L268.335 60.8381L259.598 52.1138Z" fill="#FACD49"/>
<path d="M257.337 60.875L259.618 63.1531L268.343 54.4165L266.061 52.1384L257.337 60.875Z" fill="#FACD49"/>
<path d="M282.57 52.1128L280.292 54.394L289.028 63.1184L291.306 60.8371L282.57 52.1128Z" fill="#FACD49"/>
<path d="M280.294 60.8257L282.575 63.1038L291.299 54.3672L289.018 52.0891L280.294 60.8257Z" fill="#FACD49"/>
<path d="M190.796 75.2458L188.518 77.5271L197.255 86.2515L199.533 83.9702L190.796 75.2458Z" fill="#FACD49"/>
<path d="M188.515 83.9929L190.796 86.271L199.521 77.5344L197.239 75.2563L188.515 83.9929Z" fill="#FACD49"/>
<path d="M213.754 75.2324L211.476 77.5137L220.213 86.238L222.491 83.9568L213.754 75.2324Z" fill="#FACD49"/>
<path d="M211.441 83.9736L213.723 86.2517L222.447 77.5152L220.166 75.2371L211.441 83.9736Z" fill="#FACD49"/>
<path d="M236.665 75.196L234.387 77.4773L243.124 86.2017L245.402 83.9204L236.665 75.196Z" fill="#FACD49"/>
<path d="M234.399 83.9675L236.68 86.2456L245.404 77.5091L243.123 75.231L234.399 83.9675Z" fill="#FACD49"/>
<path d="M259.611 75.1953L257.333 77.4766L266.07 86.2009L268.348 83.9196L259.611 75.1953Z" fill="#FACD49"/>
<path d="M257.355 83.9436L259.637 86.2217L268.361 77.4851L266.08 75.207L257.355 83.9436Z" fill="#FACD49"/>
<path d="M282.557 75.1943L280.279 77.4756L289.015 86.1999L291.293 83.9187L282.557 75.1943Z" fill="#FACD49"/>
<path d="M280.276 83.955L282.557 86.2332L291.281 77.4966L289 75.2185L280.276 83.955Z" fill="#FACD49"/>
<path d="M190.801 96.7099L188.523 98.9912L197.26 107.716L199.538 105.434L190.801 96.7099Z" fill="#FACD49"/>
<path d="M188.528 105.456L190.809 107.734L199.534 98.9978L197.252 96.7197L188.528 105.456Z" fill="#FACD49"/>
<path d="M213.748 96.7092L211.47 98.9905L220.206 107.715L222.484 105.434L213.748 96.7092Z" fill="#FACD49"/>
<path d="M211.467 105.45L213.748 107.728L222.472 98.9917L220.191 96.7136L211.467 105.45Z" fill="#FACD49"/>
<path d="M236.689 96.6601L234.411 98.9414L243.147 107.666L245.425 105.384L236.689 96.6601Z" fill="#FACD49"/>
<path d="M234.429 105.414L236.71 107.692L245.435 98.9551L243.153 96.677L234.429 105.414Z" fill="#FACD49"/>
<path d="M259.635 96.6599L257.357 98.9412L266.093 107.666L268.371 105.384L259.635 96.6599Z" fill="#FACD49"/>
<path d="M257.349 105.408L259.631 107.686L268.355 98.9492L266.074 96.6712L257.349 105.408Z" fill="#FACD49"/>
<path d="M282.581 96.6589L280.303 98.9402L289.039 107.665L291.317 105.383L282.581 96.6589Z" fill="#FACD49"/>
<path d="M280.288 105.419L282.57 107.697L291.294 98.9607L289.013 96.6826L280.288 105.419Z" fill="#FACD49"/>
<path d="M306.985 257.208L304.706 259.49L313.443 268.214L315.721 265.933L306.985 257.208Z" fill="#FACD49"/>
<path d="M304.687 265.932L306.968 268.21L315.693 259.474L313.411 257.196L304.687 265.932Z" fill="#FACD49"/>
<path d="M306.985 280.285L304.707 282.566L313.444 291.291L315.722 289.009L306.985 280.285Z" fill="#FACD49"/>
<path d="M304.7 289.031L306.981 291.309L315.706 282.573L313.424 280.294L304.7 289.031Z" fill="#FACD49"/>
<path d="M306.991 301.749L304.712 304.031L313.449 312.755L315.727 310.474L306.991 301.749Z" fill="#FACD49"/>
<path d="M304.713 310.495L306.994 312.773L315.718 304.036L313.437 301.758L304.713 310.495Z" fill="#FACD49"/>
<path d="M306.923 188.825L304.645 191.106L313.382 199.83L315.66 197.549L306.923 188.825Z" fill="#FACD49"/>
<path d="M304.626 197.581L306.908 199.859L315.632 191.123L313.351 188.844L304.626 197.581Z" fill="#FACD49"/>
<path d="M306.936 211.906L304.658 214.188L313.395 222.912L315.673 220.631L306.936 211.906Z" fill="#FACD49"/>
<path d="M304.663 220.65L306.944 222.928L315.669 214.192L313.387 211.914L304.663 220.65Z" fill="#FACD49"/>
<path d="M306.959 233.371L304.681 235.652L313.418 244.376L315.696 242.095L306.959 233.371Z" fill="#FACD49"/>
<path d="M304.675 242.114L306.956 244.392L315.68 235.656L313.399 233.378L304.675 242.114Z" fill="#FACD49"/>
<path d="M306.863 120.459L304.584 122.74L313.321 131.464L315.599 129.183L306.863 120.459Z" fill="#FACD49"/>
<path d="M304.585 129.213L306.866 131.491L315.591 122.754L313.309 120.476L304.585 129.213Z" fill="#FACD49"/>
<path d="M306.875 143.54L304.597 145.822L313.333 154.546L315.611 152.265L306.875 143.54Z" fill="#FACD49"/>
<path d="M304.584 152.299L306.865 154.577L315.59 145.841L313.309 143.563L304.584 152.299Z" fill="#FACD49"/>
<path d="M306.899 165.005L304.621 167.286L313.358 176.01L315.636 173.729L306.899 165.005Z" fill="#FACD49"/>
<path d="M304.597 173.763L306.879 176.042L315.603 167.305L313.322 165.027L304.597 173.763Z" fill="#FACD49"/>
<path d="M306.826 52.093L304.548 54.3743L313.285 63.0986L315.563 60.8174L306.826 52.093Z" fill="#FACD49"/>
<path d="M304.542 60.8374L306.823 63.1155L315.547 54.3789L313.266 52.1008L304.542 60.8374Z" fill="#FACD49"/>
<path d="M306.857 75.1745L304.579 77.4558L313.316 86.1802L315.594 83.8989L306.857 75.1745Z" fill="#FACD49"/>
<path d="M304.56 83.906L306.841 86.1841L315.566 77.4475L313.284 75.1694L304.56 83.906Z" fill="#FACD49"/>
<path d="M306.863 96.6391L304.584 98.9204L313.321 107.645L315.599 105.363L306.863 96.6391Z" fill="#FACD49"/>
<path d="M304.572 105.37L306.853 107.648L315.578 98.9116L313.296 96.6335L304.572 105.37Z" fill="#FACD49"/>
</g>
</svg>
