<svg width="100" height="100" viewBox="0 0 100 100" fill="none" xmlns="http://www.w3.org/2000/svg">
<rect width="100" height="100" rx="30" fill="#FF8126"/>
<path d="M42.1668 50.0001C41.0852 50.0001 40.2084 50.9701 40.2084 52.1668C40.2084 53.3634 41.0852 54.3334 42.1668 54.3334H57.8334C58.915 54.3334 59.7918 53.3634 59.7918 52.1668C59.7918 50.9701 58.915 50.0001 57.8334 50.0001H42.1668Z" fill="white"/>
<path d="M40.2084 60.8335C40.2084 59.6369 41.0852 58.6668 42.1668 58.6668H50.0001C51.0817 58.6668 51.9584 59.6369 51.9584 60.8335C51.9584 62.0302 51.0817 63.0002 50.0001 63.0002H42.1668C41.0852 63.0002 40.2084 62.0302 40.2084 60.8335Z" fill="white"/>
<path fill-rule="evenodd" clip-rule="evenodd" d="M42.1667 30.5C42.1667 29.3034 41.2899 28.3333 40.2084 28.3333C39.1268 28.3333 38.25 29.3034 38.25 30.5V32.8834C33.7806 33.8871 30.4167 38.2589 30.4167 43.5V60.8333C30.4167 66.8164 34.8006 71.6667 40.2084 71.6667H59.7917C65.1994 71.6667 69.5834 66.8164 69.5834 60.8333V43.5C69.5834 38.2589 66.2193 33.8871 61.75 32.8834V30.5C61.75 29.3034 60.8733 28.3333 59.7917 28.3333C58.7101 28.3333 57.8334 29.3034 57.8334 30.5V32.6667H42.1667V30.5ZM34.3334 45.6667H65.6667V60.8333C65.6667 64.4233 63.0364 67.3333 59.7917 67.3333H40.2084C36.9637 67.3333 34.3334 64.4233 34.3334 60.8333V45.6667Z" fill="white"/>
</svg>
