<svg width="30" height="31" viewBox="0 0 30 31" fill="none" xmlns="http://www.w3.org/2000/svg">
<rect y="0.612305" width="30" height="30" rx="15" fill="#872BFF"/>
<path fill-rule="evenodd" clip-rule="evenodd" d="M15 10.6123C12.2385 10.6123 10 12.8508 10 15.6123C10 18.3738 12.2385 20.6123 15 20.6123C17.7614 20.6123 20 18.3738 20 15.6123C20 12.8508 17.7614 10.6123 15 10.6123ZM15 18.858C13.2075 18.858 11.7543 17.4048 11.7543 15.6123C11.7543 13.8198 13.2075 12.3667 15 12.3667C16.7925 12.3667 18.2456 13.8198 18.2456 15.6123C18.2456 17.4048 16.7925 18.858 15 18.858Z" fill="white"/>
<path d="M20.4167 11.4456C21.107 11.4456 21.6667 10.8859 21.6667 10.1957C21.6667 9.50534 21.107 8.94564 20.4167 8.94564C19.7263 8.94564 19.1667 9.50534 19.1667 10.1957C19.1667 10.8859 19.7263 11.4456 20.4167 11.4456Z" fill="white"/>
<path fill-rule="evenodd" clip-rule="evenodd" d="M15 5.6123C12.2842 5.6123 11.9436 5.6238 10.877 5.67247C9.81267 5.72105 9.08567 5.89006 8.44958 6.13731C7.792 6.39281 7.23433 6.73473 6.67842 7.29073C6.12242 7.84665 5.7805 8.40432 5.525 9.0619C5.27775 9.69799 5.10875 10.4249 5.06017 11.4893C5.0115 12.5559 5 12.8965 5 15.6123C5 18.3282 5.0115 18.6687 5.06017 19.7353C5.10875 20.7997 5.27775 21.5266 5.525 22.1627C5.7805 22.8203 6.12242 23.378 6.67842 23.934C7.23433 24.4899 7.792 24.8318 8.44958 25.0873C9.08567 25.3346 9.81267 25.5036 10.877 25.5521C11.9436 25.6008 12.2842 25.6123 15 25.6123C17.7158 25.6123 18.0564 25.6008 19.123 25.5521C20.1873 25.5036 20.9143 25.3346 21.5504 25.0873C22.208 24.8318 22.7657 24.4899 23.3216 23.934C23.8775 23.378 24.2195 22.8203 24.475 22.1627C24.7222 21.5266 24.8912 20.7997 24.9398 19.7353C24.9885 18.6687 25 18.3282 25 15.6123C25 12.8965 24.9885 12.5559 24.9398 11.4893C24.8912 10.4249 24.7222 9.69799 24.475 9.0619C24.2195 8.40432 23.8775 7.84665 23.3216 7.29073C22.7657 6.73473 22.208 6.39281 21.5504 6.13731C20.9143 5.89006 20.1873 5.72105 19.123 5.67247C18.0564 5.6238 17.7158 5.6123 15 5.6123ZM15 7.41415C17.6701 7.41415 17.9864 7.42431 19.0408 7.4724C20.0158 7.5169 20.5453 7.67981 20.8977 7.81673C21.3645 7.99815 21.6976 8.21482 22.0475 8.56473C22.3975 8.91474 22.6142 9.24782 22.7956 9.71457C22.9325 10.067 23.0954 10.5965 23.1399 11.5714C23.188 12.6259 23.1982 12.9422 23.1982 15.6123C23.1982 18.2824 23.188 18.5987 23.1399 19.6532C23.0954 20.6282 22.9325 21.1576 22.7956 21.51C22.6142 21.9768 22.3975 22.31 22.0476 22.6599C21.6976 23.0098 21.3645 23.2265 20.8977 23.4079C20.5453 23.5449 20.0158 23.7077 19.0408 23.7522C17.9866 23.8003 17.6703 23.8105 15 23.8105C12.3297 23.8105 12.0135 23.8003 10.9592 23.7522C9.98417 23.7077 9.45467 23.5449 9.10225 23.4079C8.6355 23.2265 8.30242 23.0098 7.9525 22.6599C7.60258 22.31 7.38583 21.9768 7.20442 21.51C7.0675 21.1576 6.90458 20.6282 6.86008 19.6532C6.812 18.5987 6.80183 18.2824 6.80183 15.6123C6.80183 12.9422 6.812 12.6259 6.86008 11.5714C6.90458 10.5965 7.0675 10.067 7.20442 9.71457C7.38583 9.24782 7.6025 8.91474 7.9525 8.56482C8.30242 8.21482 8.6355 7.99815 9.10225 7.81673C9.45467 7.67981 9.98417 7.5169 10.9592 7.4724C12.0136 7.42431 12.3299 7.41415 15 7.41415Z" fill="white"/>
</svg>
