<svg width="180" height="19" viewBox="0 0 180 19" fill="none" xmlns="http://www.w3.org/2000/svg">
<path d="M15.9123 11.82C15.6533 12.071 15.5343 12.434 15.5933 12.79L16.4823 17.71C16.5573 18.127 16.3813 18.549 16.0323 18.79C15.6903 19.04 15.2353 19.07 14.8623 18.87L10.4333 16.56C10.2793 16.478 10.1083 16.434 9.93332 16.429H9.66232C9.56832 16.443 9.47632 16.473 9.39232 16.519L4.96231 18.84C4.74331 18.95 4.49531 18.989 4.25231 18.95C3.66031 18.838 3.26531 18.274 3.36231 17.679L4.25231 12.759C4.31131 12.4 4.19231 12.035 3.93331 11.78L0.322314 8.27998C0.0203144 7.98698 -0.0846854 7.54698 0.0533146 7.15C0.187315 6.754 0.529315 6.465 0.942315 6.4L5.91231 5.679C6.29031 5.64 6.62231 5.41 6.79232 5.07L8.98232 0.58C9.03432 0.48 9.10132 0.388 9.18232 0.31L9.27232 0.24C9.31932 0.188 9.37332 0.145 9.43332 0.11L9.54232 0.0700002L9.71232 0H10.1333C10.5093 0.039 10.8403 0.264 11.0133 0.6L13.2323 5.07C13.3923 5.397 13.7033 5.624 14.0623 5.679L19.0323 6.4C19.4523 6.46 19.8033 6.75 19.9423 7.15C20.0733 7.55098 19.9603 7.99098 19.6523 8.27998L15.9123 11.82Z" fill="#FACD49"/>
<path d="M55.9149 11.82C55.6559 12.071 55.5369 12.434 55.5959 12.79L56.4849 17.71C56.5599 18.127 56.384 18.549 56.035 18.79C55.693 19.04 55.2379 19.07 54.8649 18.87L50.4359 16.56C50.2819 16.478 50.1109 16.434 49.9359 16.429H49.6649C49.5709 16.443 49.4789 16.473 49.3949 16.519L44.9649 18.84C44.7459 18.95 44.4979 18.989 44.2549 18.95C43.6629 18.838 43.2679 18.274 43.3649 17.679L44.2549 12.759C44.3139 12.4 44.1949 12.035 43.9359 11.78L40.3249 8.27998C40.0229 7.98698 39.9179 7.54698 40.0559 7.15C40.1899 6.754 40.5319 6.465 40.9449 6.4L45.9149 5.679C46.2929 5.64 46.6249 5.41 46.7949 5.07L48.9849 0.58C49.0369 0.48 49.1039 0.388 49.1849 0.31L49.2749 0.24C49.3219 0.188 49.3759 0.145 49.4359 0.11L49.5449 0.0700002L49.7149 0H50.1359C50.5119 0.039 50.8429 0.264 51.0159 0.6L53.2349 5.07C53.3949 5.397 53.7059 5.624 54.0649 5.679L59.035 6.4C59.455 6.46 59.806 6.75 59.945 7.15C60.076 7.55098 59.9629 7.99098 59.6549 8.27998L55.9149 11.82Z" fill="#FACD49"/>
<path d="M95.9176 11.82C95.6586 12.071 95.5396 12.434 95.5986 12.79L96.4876 17.71C96.5626 18.127 96.3866 18.549 96.0376 18.79C95.6956 19.04 95.2406 19.07 94.8676 18.87L90.4386 16.56C90.2846 16.478 90.1136 16.434 89.9386 16.429H89.6676C89.5736 16.443 89.4816 16.473 89.3976 16.519L84.9676 18.84C84.7486 18.95 84.5006 18.989 84.2576 18.95C83.6656 18.838 83.2706 18.274 83.3676 17.679L84.2576 12.759C84.3166 12.4 84.1976 12.035 83.9386 11.78L80.3276 8.27998C80.0256 7.98698 79.9206 7.54698 80.0586 7.15C80.1926 6.754 80.5346 6.465 80.9476 6.4L85.9176 5.679C86.2956 5.64 86.6276 5.41 86.7976 5.07L88.9876 0.58C89.0396 0.48 89.1066 0.388 89.1876 0.31L89.2776 0.24C89.3246 0.188 89.3786 0.145 89.4386 0.11L89.5476 0.0700002L89.7176 0H90.1386C90.5146 0.039 90.8456 0.264 91.0186 0.6L93.2376 5.07C93.3976 5.397 93.7086 5.624 94.0676 5.679L99.0376 6.4C99.4576 6.46 99.8086 6.75 99.9476 7.15C100.079 7.55098 99.9656 7.99098 99.6576 8.27998L95.9176 11.82Z" fill="#FACD49"/>
<path d="M135.92 11.82C135.661 12.071 135.542 12.434 135.601 12.79L136.49 17.71C136.565 18.127 136.389 18.549 136.04 18.79C135.698 19.04 135.243 19.07 134.87 18.87L130.441 16.56C130.287 16.478 130.116 16.434 129.941 16.429H129.67C129.576 16.443 129.484 16.473 129.4 16.519L124.97 18.84C124.751 18.95 124.503 18.989 124.26 18.95C123.668 18.838 123.273 18.274 123.37 17.679L124.26 12.759C124.319 12.4 124.2 12.035 123.941 11.78L120.33 8.27998C120.028 7.98698 119.923 7.54698 120.061 7.15C120.195 6.754 120.537 6.465 120.95 6.4L125.92 5.679C126.298 5.64 126.63 5.41 126.8 5.07L128.99 0.58C129.042 0.48 129.109 0.388 129.19 0.31L129.28 0.24C129.327 0.188 129.381 0.145 129.441 0.11L129.55 0.0700002L129.72 0H130.141C130.517 0.039 130.848 0.264 131.021 0.6L133.24 5.07C133.4 5.397 133.711 5.624 134.07 5.679L139.04 6.4C139.46 6.46 139.811 6.75 139.95 7.15C140.081 7.55098 139.968 7.99098 139.66 8.27998L135.92 11.82Z" fill="#FACD49"/>
<path d="M175.923 11.82C175.664 12.071 175.545 12.434 175.604 12.79L176.493 17.71C176.568 18.127 176.392 18.549 176.043 18.79C175.701 19.04 175.246 19.07 174.873 18.87L170.444 16.56C170.29 16.478 170.119 16.434 169.944 16.429H169.673C169.579 16.443 169.487 16.473 169.403 16.519L164.973 18.84C164.754 18.95 164.506 18.989 164.263 18.95C163.671 18.838 163.276 18.274 163.373 17.679L164.263 12.759C164.322 12.4 164.203 12.035 163.944 11.78L160.333 8.27998C160.031 7.98698 159.926 7.54698 160.064 7.15C160.198 6.754 160.54 6.465 160.953 6.4L165.923 5.679C166.301 5.64 166.633 5.41 166.803 5.07L168.993 0.58C169.045 0.48 169.112 0.388 169.193 0.31L169.283 0.24C169.33 0.188 169.384 0.145 169.444 0.11L169.553 0.0700002L169.723 0H170.144C170.52 0.039 170.851 0.264 171.024 0.6L173.243 5.07C173.403 5.397 173.714 5.624 174.073 5.679L179.043 6.4C179.463 6.46 179.814 6.75 179.953 7.15C180.084 7.55098 179.971 7.99098 179.663 8.27998L175.923 11.82Z" fill="#FACD49"/>
</svg>
