<svg width="100" height="100" viewBox="0 0 100 100" fill="none" xmlns="http://www.w3.org/2000/svg">
<rect x="-0.5" y="0.5" width="99" height="99" rx="49.5" transform="matrix(-1 0 0 1 99 0)" fill="white"/>
<rect x="-0.5" y="0.5" width="99" height="99" rx="49.5" transform="matrix(-1 0 0 1 99 0)" stroke="#872BFF"/>
<path d="M56.4529 62.3475C55.6882 63.1122 54.4481 63.1122 53.6834 62.3475L44.1123 52.7667C42.584 51.2371 42.5846 48.7582 44.1134 47.2291L53.6905 37.6522C54.4552 36.8874 55.6952 36.8874 56.46 37.6522C57.2248 38.417 57.2248 39.6569 56.46 40.4217L48.2631 48.6186C47.4982 49.3833 47.4982 50.6233 48.2631 51.3881L56.4529 59.578C57.2177 60.3427 57.2177 61.5826 56.4529 62.3475Z" fill="#872BFF"/>
</svg>
