<svg width="30" height="31" viewBox="0 0 30 31" fill="none" xmlns="http://www.w3.org/2000/svg">
<path d="M15 30.6123C23.2843 30.6123 30 23.8966 30 15.6123C30 7.32803 23.2843 0.612305 15 0.612305C6.71573 0.612305 0 7.32803 0 15.6123C0 23.8966 6.71573 30.6123 15 30.6123Z" fill="#872BFF"/>
<path d="M24.188 11.3923C23.5452 11.6773 22.8538 11.8701 22.1286 11.9562C22.869 11.5126 23.4372 10.8107 23.7054 9.97298C23.0126 10.384 22.2449 10.6821 21.4286 10.8428C20.7745 10.1462 19.8427 9.71094 18.8108 9.71094C16.8311 9.71094 15.2254 11.3166 15.2254 13.2964C15.2254 13.5774 15.2572 13.8509 15.3187 14.1135C12.3389 13.964 9.69687 12.5367 7.92836 10.3668C7.61979 10.8963 7.44278 11.5126 7.44278 12.1696C7.44278 13.4132 8.07622 14.5111 9.03776 15.1539C8.4503 15.1355 7.89707 14.9742 7.4139 14.705C7.41363 14.7202 7.41363 14.7354 7.41363 14.7504C7.41363 16.4876 8.65004 17.9366 10.2899 18.2658C9.98939 18.3481 9.672 18.3917 9.34552 18.3917C9.11396 18.3917 8.88962 18.3695 8.6709 18.3278C9.12706 19.7519 10.4509 20.7886 12.0202 20.8178C10.7929 21.7795 9.24712 22.3526 7.56685 22.3526C7.27807 22.3526 6.99196 22.3357 6.71201 22.3023C8.29789 23.32 10.183 23.9133 12.2077 23.9133C18.8025 23.9133 22.4091 18.45 22.4091 13.7116C22.4091 13.5563 22.4056 13.4014 22.3987 13.248C23.0998 12.7426 23.7075 12.1113 24.188 11.3923Z" fill="white"/>
</svg>
