<svg width="52" height="47" viewBox="0 0 52 47" fill="none" xmlns="http://www.w3.org/2000/svg">
<path d="M49.906 32.382L10.9591 41.377C9.49788 41.7344 8.03667 40.7218 7.75566 39.173L2.30422 12.9624C1.96702 11.4136 2.92243 9.86475 4.38364 9.5669L43.3305 0.5719C44.7918 0.214483 46.253 1.22716 46.534 2.77597L51.9292 29.0461C52.2664 30.5354 51.3672 32.0842 49.906 32.382Z" fill="#872BFF"/>
<path d="M7.69947 39.173L2.30423 12.9624L7.69947 39.173Z" fill="#383E56"/>
<path d="M47.2092 5.71337L2.94894 15.9305L4.04921 21.2854L48.3095 11.0683L47.2092 5.71337Z" fill="#5B5D6E"/>
<path opacity="0.15" d="M45.2976 16.7748V43.6407C45.2976 44.2959 45.0728 44.9512 44.6794 45.4277C44.2298 45.8447 43.6116 46.083 42.9934 46.083H3.09105C1.57364 46.083 0.393433 44.7725 0.393433 43.2237V16.3578C0.393433 15.7026 0.618234 15.0473 1.01164 14.5707C1.46124 14.1537 2.07945 13.9155 2.69765 13.9155H42.5438C44.0612 13.8559 45.2976 15.1664 45.2976 16.7748Z" fill="black"/>
<path opacity="0.15" d="M45.2976 16.7748V43.6407C45.2976 44.2959 45.0728 44.9512 44.6794 45.4278C44.1735 46.083 43.4429 46.5 42.5999 46.5H2.69762C1.18021 46.5 0 45.1895 0 43.6407V16.7748C0 15.8813 0.393403 15.1069 1.01161 14.5707C1.46121 14.1537 2.07942 13.9155 2.69762 13.9155H42.5437C44.0611 13.8559 45.2976 15.1664 45.2976 16.7748Z" fill="black"/>
<path d="M42.5437 46.5H2.69762C1.18021 46.5 0 45.1894 0 43.6406V16.7748C0 15.1664 1.23641 13.9154 2.69762 13.9154H42.5437C44.0611 13.9154 45.2414 15.226 45.2414 16.7748V43.6406C45.2414 45.1894 44.0611 46.5 42.5437 46.5Z" fill="#872BFF"/>
<path d="M12.9823 33.633H5.05806C4.49605 33.633 4.04645 33.1564 4.04645 32.5607V27.7356C4.04645 27.1399 4.49605 26.6634 5.05806 26.6634H12.9823C13.5443 26.6634 13.9939 27.1399 13.9939 27.7356V32.6203C13.9939 33.1564 13.5443 33.633 12.9823 33.633Z" fill="#E5CF89"/>
<path d="M39.7899 41.4366H30.4607C30.2359 41.4366 30.011 41.6153 30.011 41.9132V42.4493C30.011 42.6876 30.1797 42.9259 30.4607 42.9259H39.7899C40.0147 42.9259 40.2395 42.7471 40.2395 42.4493V41.9132C40.2395 41.6153 40.0147 41.4366 39.7899 41.4366Z" fill="#5B5D6E"/>
<path d="M28.2126 41.4366H14.1063C13.8815 41.4366 13.6567 41.6153 13.6567 41.9132V42.4493C13.6567 42.6876 13.8253 42.9259 14.1063 42.9259H28.2126C28.4374 42.9259 28.6622 42.7471 28.6622 42.4493V41.9132C28.6622 41.6153 28.4936 41.4366 28.2126 41.4366Z" fill="#5B5D6E"/>
</svg>
