<svg width="484" height="484" viewBox="0 0 484 484" fill="none" xmlns="http://www.w3.org/2000/svg">
<g clip-path="url(#clip0_3_72)">
<path d="M131.982 102.853C147.987 83.408 179.63 79.372 199.998 94.1853C210.543 101.844 217.848 113.436 228.771 120.553C244.106 130.544 263.953 130.094 282.008 127.032C300.063 123.97 318.073 118.642 336.315 120.126C354.565 121.601 373.78 132.131 378.26 149.882C382.6 167.053 372.167 185.457 376.708 202.584C384.085 230.436 424.711 237.336 434.565 264.41C439.539 278.08 434.758 294.105 424.777 304.689C414.796 315.272 400.403 320.9 385.956 322.652C368.918 324.723 350.733 322.04 335.283 329.511C310.14 341.682 303.907 373.884 288.874 397.422C274.72 419.599 249.368 435.506 223.097 434.085C196.826 432.664 171.786 411.281 170.253 385.013C169.421 370.832 174.776 355.58 168.269 342.945C160.195 327.264 139.362 324.958 122.061 321.553C107.71 318.73 93.3619 313.592 82.5783 303.72C71.7865 293.84 65.1687 278.527 68.5855 264.302C76.8978 229.606 130.683 223.738 132.641 185.364C134.165 155.732 108.16 131.803 131.982 102.853Z" stroke="#FF5722" stroke-width="0.858384" stroke-miterlimit="10"/>
<path d="M137.835 110.24C152.987 91.8322 182.95 88.0076 202.234 102.033C212.213 109.29 219.133 120.258 229.474 126.99C243.997 136.456 262.784 136.018 279.871 133.121C296.958 130.224 314.01 125.182 331.287 126.579C348.564 127.977 366.748 137.944 370.999 154.745C375.102 171.007 365.233 188.428 369.521 204.645C376.504 231.008 414.969 237.545 424.301 263.181C429.01 276.12 424.479 291.29 415.029 301.321C405.588 311.343 391.949 316.665 378.286 318.328C362.16 320.292 344.941 317.744 330.309 324.825C306.505 336.347 300.603 366.835 286.378 389.118C272.977 410.114 248.977 425.177 224.108 423.833C199.231 422.498 175.533 402.246 174.084 377.376C173.308 363.947 178.363 349.503 172.209 337.556C164.565 322.717 144.843 320.526 128.461 317.306C114.874 314.63 101.292 309.767 91.0772 300.427C80.8544 291.078 74.6008 276.575 77.8302 263.107C85.7016 230.257 136.627 224.705 138.472 188.38C139.898 160.321 115.286 137.667 137.844 110.248L137.835 110.24Z" stroke="#FF5722" stroke-width="0.824049" stroke-linecap="round" stroke-linejoin="round"/>
<path d="M143.689 117.628C157.987 100.256 186.262 96.6516 204.462 109.873C213.883 116.72 220.41 127.073 230.169 133.436C243.872 142.367 261.607 141.95 277.734 139.226C293.869 136.493 309.955 131.73 326.259 133.05C342.563 134.369 359.732 143.774 363.739 159.641C367.613 174.984 358.299 191.431 362.35 206.738C368.948 231.619 405.244 237.787 414.046 261.977C418.498 274.192 414.216 288.507 405.298 297.968C396.379 307.43 383.52 312.453 370.616 314.02C355.394 315.869 339.142 313.472 325.344 320.148C302.879 331.02 297.306 359.793 283.874 380.822C271.227 400.638 248.585 414.848 225.102 413.582C201.628 412.324 179.255 393.204 177.891 369.732C177.153 357.055 181.926 343.434 176.117 332.152C168.901 318.138 150.292 316.08 134.828 313.044C122.005 310.53 109.189 305.927 99.551 297.11C89.9052 288.284 83.9917 274.6 87.042 261.896C94.4725 230.892 142.523 225.656 144.279 191.373C145.631 164.894 122.396 143.516 143.689 117.644L143.689 117.628Z" stroke="#FF5722" stroke-width="0.789713" stroke-linecap="round" stroke-linejoin="round"/>
<path d="M149.542 125.015C162.986 108.681 189.582 105.287 206.69 117.729C215.552 124.166 221.687 133.903 230.863 139.881C243.754 148.27 260.43 147.899 275.588 145.323C290.755 142.756 305.884 138.278 321.223 139.512C336.554 140.754 352.701 149.604 356.469 164.512C360.123 178.945 351.348 194.402 355.163 208.799C361.358 232.199 395.503 237.996 403.782 260.748C407.96 272.24 403.945 285.7 395.558 294.592C387.17 303.485 375.074 308.209 362.945 309.68C348.636 311.421 333.349 309.159 320.369 315.447C299.243 325.669 294.001 352.728 281.369 372.51C269.476 391.145 248.178 404.503 226.105 403.323C204.024 402.134 182.993 384.161 181.713 362.088C181.023 350.171 185.512 337.357 180.04 326.748C173.255 313.576 155.756 311.632 141.218 308.772C129.159 306.405 117.102 302.087 108.041 293.792C98.9722 285.489 93.4149 272.624 96.2779 260.676C103.267 231.519 148.45 226.591 150.101 194.35C151.371 169.442 129.521 149.332 149.542 125.015Z" stroke="#FF5722" stroke-width="0.755378" stroke-linecap="round" stroke-linejoin="round"/>
<path d="M155.395 132.403C167.994 117.097 192.895 113.932 208.926 125.577C217.222 131.613 222.972 140.726 231.574 146.327C243.653 154.19 259.269 153.831 273.467 151.428C287.666 149.026 301.845 144.827 316.204 145.99C330.562 147.154 345.685 155.434 349.208 169.408C352.626 182.931 344.414 197.405 347.984 210.885C353.794 232.802 385.77 238.23 393.518 259.535C397.431 270.296 393.666 282.901 385.81 291.241C377.962 299.572 366.629 303.998 355.267 305.381C341.862 307.007 327.542 304.895 315.388 310.787C295.6 320.359 290.688 345.703 278.866 364.231C267.726 381.686 247.779 394.199 227.099 393.088C206.42 391.977 186.724 375.143 185.512 354.469C184.861 343.303 189.075 331.305 183.948 321.361C177.592 309.03 161.205 307.202 147.585 304.526C136.29 302.306 124.999 298.264 116.515 290.492C108.024 282.728 102.822 270.665 105.498 259.474C112.046 232.162 154.37 227.55 155.908 197.359C157.096 174.04 136.631 155.197 155.379 132.419L155.395 132.403Z" stroke="#FF5722" stroke-width="0.709597" stroke-linecap="round" stroke-linejoin="round"/>
<path d="M161.257 139.799C173.002 125.53 196.215 122.568 211.171 133.433C218.908 139.059 224.265 147.557 232.277 152.781C243.536 160.109 258.092 159.78 271.346 157.534C284.585 155.288 297.806 151.375 311.2 152.468C324.586 153.555 338.686 161.28 341.98 174.304C345.169 186.908 337.512 200.408 340.837 212.969C346.254 233.398 376.061 238.472 383.295 258.33C386.943 268.36 383.436 280.118 376.111 287.888C368.786 295.659 358.224 299.778 347.629 301.073C335.129 302.6 321.791 300.623 310.454 306.109C292.006 315.031 287.432 338.669 276.402 355.943C266.016 372.217 247.42 383.886 228.135 382.844C208.857 381.811 190.487 366.108 189.368 346.841C188.764 336.435 192.678 325.243 187.913 315.981C181.986 304.475 166.71 302.779 154.009 300.287C143.478 298.213 132.953 294.448 125.038 287.207C117.124 279.965 112.262 268.721 114.767 258.286C120.867 232.829 160.331 228.517 161.763 200.368C162.869 178.62 143.79 161.062 161.273 139.815L161.257 139.799Z" stroke="#FF5722" stroke-width="0.675262" stroke-linecap="round" stroke-linejoin="round"/>
<path d="M167.102 147.194C177.994 133.962 199.527 131.211 213.391 141.297C220.569 146.513 225.534 154.396 232.972 159.243C243.411 166.037 256.915 165.728 269.201 163.647C281.488 161.566 293.736 157.939 306.165 158.947C318.585 159.947 331.654 167.11 334.711 179.191C337.663 190.886 330.57 203.403 333.659 215.055C338.673 234.001 366.328 238.706 373.032 257.117C376.414 266.415 373.166 277.327 366.372 284.528C359.578 291.729 349.786 295.558 339.959 296.749C328.363 298.161 315.991 296.334 305.48 301.424C288.371 309.712 284.127 331.62 273.898 347.631C264.266 362.724 247.013 373.541 229.137 372.585C211.253 371.62 194.225 357.065 193.182 339.188C192.618 329.535 196.257 319.158 191.829 310.569C186.331 299.904 172.159 298.332 160.384 296.016C150.624 294.097 140.858 290.6 133.52 283.881C126.183 277.163 121.677 266.737 123.995 257.059C129.653 233.448 166.25 229.46 167.586 203.344C168.618 183.177 150.916 166.894 167.135 147.194L167.102 147.194Z" stroke="#FF5722" stroke-width="0.640927" stroke-linecap="round" stroke-linejoin="round"/>
<path d="M172.956 154.582C182.994 142.386 202.84 139.855 215.619 149.137C222.239 153.943 226.811 161.21 233.666 165.672C243.294 171.94 255.729 171.653 267.064 169.736C278.383 167.82 289.689 164.479 301.129 165.409C312.577 166.331 324.623 172.94 327.434 184.071C330.157 194.847 323.611 206.382 326.455 217.132C331.084 234.597 356.571 238.932 362.744 255.913C365.869 264.488 362.863 274.536 356.608 281.176C350.353 287.817 341.317 291.339 332.257 292.442C321.574 293.746 310.167 292.055 300.474 296.739C284.704 304.378 280.79 324.571 271.362 339.336C262.483 353.249 246.581 363.221 230.099 362.334C213.618 361.447 197.923 348.03 196.957 331.561C196.44 322.667 199.795 313.098 195.712 305.173C190.644 295.334 177.583 293.893 166.727 291.762C157.723 289.998 148.731 286.768 141.954 280.573C135.185 274.386 131.028 264.771 133.174 255.849C138.392 234.084 172.122 230.403 173.36 206.338C174.31 187.742 158.001 172.735 172.94 154.582L172.956 154.582Z" stroke="#FF5722" stroke-width="0.606591" stroke-linecap="round" stroke-linejoin="round"/>
<path d="M178.809 161.969C187.993 150.81 206.16 148.491 217.847 156.993C223.9 161.398 228.088 168.041 234.361 172.134C243.169 177.868 254.56 177.609 264.919 175.849C275.277 174.09 285.618 171.043 296.093 171.888C306.568 172.732 317.599 178.778 320.173 188.966C322.668 198.825 316.677 209.385 319.277 219.217C323.503 235.201 346.838 239.165 352.489 254.708C355.348 262.552 352.6 271.753 346.869 277.832C341.137 283.912 332.88 287.135 324.595 288.142C314.816 289.332 304.376 287.79 295.509 292.078C281.077 299.067 277.494 317.545 268.874 331.056C260.749 343.788 246.199 352.916 231.119 352.107C216.039 351.297 201.67 339.012 200.788 323.941C200.31 315.799 203.383 307.053 199.645 299.794C195.006 290.795 183.056 289.47 173.126 287.514C164.886 285.897 156.652 282.952 150.46 277.272C144.269 271.607 140.468 262.811 142.427 254.645C147.204 234.727 178.074 231.362 179.191 209.339C180.059 192.331 165.136 178.591 178.809 161.969Z" stroke="#FF5722" stroke-width="0.572256" stroke-linecap="round" stroke-linejoin="round"/>
<path d="M184.662 169.356C192.993 159.234 209.472 157.135 220.083 164.84C225.57 168.827 229.373 174.863 235.064 178.571C243.051 183.771 253.383 183.541 262.79 181.946C272.196 180.351 281.571 177.583 291.073 178.349C300.575 179.116 310.576 184.6 312.913 193.846C315.17 202.794 309.743 212.372 312.106 221.294C315.947 235.796 337.113 239.391 342.233 253.487C344.819 260.607 342.33 268.945 337.137 274.464C331.937 279.974 324.442 282.899 316.925 283.817C308.05 284.892 298.584 283.494 290.535 287.393C277.442 293.732 274.197 310.503 266.371 322.76C258.999 334.312 245.8 342.595 232.113 341.855C218.427 341.115 205.392 329.985 204.603 316.305C204.173 308.923 206.953 300.976 203.569 294.405C199.368 286.24 188.521 285.039 179.509 283.267C172.033 281.797 164.566 279.128 158.943 273.978C153.329 268.837 149.884 260.859 151.655 253.45C155.983 235.386 183.986 232.329 185.014 212.347C185.8 196.912 172.262 184.456 184.671 169.38L184.662 169.356Z" stroke="#FF5722" stroke-width="0.537921" stroke-linecap="round" stroke-linejoin="round"/>
<path d="M190.516 176.744C198.001 167.651 212.793 165.771 222.32 172.688C227.247 176.266 230.657 181.686 235.766 185.008C242.942 189.682 252.214 189.466 260.652 188.036C269.091 186.605 277.516 184.115 286.045 184.804C294.574 185.492 303.56 190.413 305.651 198.709C307.68 206.739 302.808 215.343 304.926 223.347C308.374 236.359 327.371 239.601 331.977 252.25C334.298 258.639 332.066 266.13 327.405 271.079C322.744 276.029 316.013 278.655 309.254 279.478C301.292 280.445 292.784 279.189 285.568 282.684C273.815 288.373 270.9 303.43 263.874 314.424C257.256 324.795 245.399 332.226 233.123 331.572C220.839 330.909 209.13 320.91 208.425 308.628C208.034 301.999 210.539 294.866 207.5 288.961C203.72 281.63 193.993 280.552 185.9 278.964C179.187 277.64 172.486 275.248 167.432 270.629C162.387 266.018 159.29 258.851 160.89 252.198C164.778 235.981 189.921 233.239 190.836 215.292C191.548 201.436 179.387 190.256 190.523 176.719L190.516 176.744Z" stroke="#FF5722" stroke-width="0.503585" stroke-linecap="round" stroke-linejoin="round"/>
<path d="M196.377 184.138C203.009 176.082 216.121 174.414 224.548 180.544C228.909 183.719 231.943 188.524 236.469 191.461C242.825 195.601 251.045 195.405 258.523 194.148C266.002 192.891 273.462 190.678 281.018 191.289C288.574 191.9 296.537 196.267 298.391 203.62C300.191 210.732 295.866 218.354 297.747 225.448C300.802 236.987 317.63 239.842 321.714 251.053C323.777 256.718 321.796 263.355 317.658 267.743C313.52 272.131 307.56 274.451 301.584 275.185C294.527 276.038 286.993 274.925 280.595 278.03C270.18 283.07 267.596 296.412 261.37 306.16C255.506 315.35 245.009 321.929 234.126 321.344C223.244 320.759 212.869 311.899 212.24 301.024C211.897 295.154 214.111 288.837 211.416 283.597C208.074 277.098 199.45 276.144 192.275 274.741C186.335 273.572 180.392 271.448 175.915 267.352C171.447 263.264 168.706 256.915 170.119 251.019C173.565 236.647 195.842 234.214 196.651 218.324C197.274 206.049 186.505 196.128 196.377 184.138Z" stroke="#FF5722" stroke-width="0.46925" stroke-linecap="round" stroke-linejoin="round"/>
<path d="M202.23 191.526C208.008 184.507 219.425 183.05 226.784 188.392C230.586 191.158 233.227 195.347 237.163 197.907C242.699 201.513 249.867 201.354 256.378 200.246C262.888 199.137 269.398 197.219 275.982 197.752C282.565 198.285 289.505 202.081 291.121 208.492C292.685 214.694 288.923 221.333 290.56 227.526C293.22 237.575 307.889 240.068 311.45 249.84C313.248 254.775 311.517 260.556 307.918 264.383C304.311 268.203 299.122 270.232 293.906 270.87C287.761 271.615 281.193 270.653 275.621 273.346C266.545 277.735 264.291 289.363 258.866 297.865C253.756 305.875 244.609 311.609 235.129 311.101C225.648 310.593 216.607 302.872 216.054 293.389C215.75 288.271 217.689 282.768 215.34 278.209C212.427 272.552 204.899 271.714 198.666 270.486C193.482 269.472 188.305 267.608 184.405 264.051C180.514 260.486 178.122 254.964 179.347 249.824C182.352 237.299 201.77 235.181 202.474 221.334C203.023 210.638 193.631 201.993 202.231 191.543L202.23 191.526Z" stroke="#FF5722" stroke-width="0.434915" stroke-linecap="round" stroke-linejoin="round"/>
<path d="M208.076 198.922C213 192.94 222.737 191.694 229.004 196.256C232.248 198.612 234.496 202.186 237.858 204.369C242.582 207.449 248.69 207.303 254.241 206.367C259.799 205.423 265.336 203.791 270.954 204.238C276.565 204.694 282.481 207.935 283.869 213.396C285.204 218.679 281.998 224.344 283.389 229.619C285.664 238.186 298.164 240.31 301.195 248.652C302.727 252.855 301.255 257.789 298.187 261.047C295.119 264.306 290.685 266.029 286.244 266.57C280.995 267.209 275.41 266.381 270.655 268.685C262.918 272.424 260.994 282.338 256.379 289.585C252.022 296.414 244.227 301.304 236.14 300.866C228.053 300.427 220.346 293.846 219.877 285.761C219.629 281.394 221.268 276.699 219.264 272.821C216.773 267.998 210.364 267.283 205.049 266.24C200.629 265.372 196.218 263.784 192.896 260.75C189.573 257.716 187.537 252.996 188.583 248.621C191.148 237.942 207.689 236.14 208.297 224.326C208.763 215.203 200.757 207.842 208.092 198.938L208.076 198.922Z" stroke="#FF5722" stroke-width="0.389134" stroke-linecap="round" stroke-linejoin="round"/>
<path d="M213.929 206.309C217.999 201.363 226.057 200.329 231.24 204.104C233.925 206.05 235.781 209.008 238.561 210.806C242.464 213.351 247.513 213.235 252.103 212.456C256.694 211.677 261.281 210.323 265.926 210.692C270.572 211.061 275.465 213.748 276.599 218.267C277.698 222.641 275.055 227.323 276.202 231.679C278.075 238.765 288.422 240.519 290.923 247.414C292.182 250.894 290.975 254.974 288.431 257.671C285.894 260.36 282.231 261.793 278.557 262.246C274.221 262.777 269.593 262.092 265.657 263.992C259.259 267.081 257.673 275.288 253.842 281.273C250.239 286.922 243.787 290.96 237.101 290.599C230.416 290.238 224.043 284.795 223.659 278.109C223.45 274.494 224.814 270.614 223.155 267.401C221.101 263.411 215.796 262.82 211.399 261.961C207.743 261.24 204.09 259.936 201.345 257.425C198.6 254.913 196.919 251.013 197.779 247.394C199.894 238.569 213.585 237.075 214.079 227.311C214.463 219.776 207.843 213.683 213.913 206.309L213.929 206.309Z" stroke="#FF5722" stroke-width="0.354799" stroke-linecap="round" stroke-linejoin="round"/>
<path d="M219.782 213.697C222.999 209.788 229.37 208.973 233.476 211.952C235.595 213.496 237.066 215.831 239.264 217.26C242.347 219.271 246.344 219.176 249.974 218.569C253.605 217.963 257.234 216.879 260.899 217.179C264.571 217.47 268.434 219.595 269.339 223.163C270.209 226.618 268.113 230.318 269.023 233.765C270.51 239.369 278.681 240.761 280.667 246.21C281.669 248.966 280.705 252.183 278.699 254.319C276.686 256.447 273.794 257.573 270.887 257.939C267.455 258.355 263.802 257.812 260.691 259.315C255.632 261.771 254.377 268.247 251.354 272.977C248.504 277.446 243.404 280.639 238.12 280.355C232.837 280.072 227.798 275.768 227.482 270.481C227.32 267.627 228.393 264.562 227.079 262.014C225.455 258.865 221.26 258.39 217.783 257.714C214.898 257.148 212.004 256.113 209.835 254.124C207.667 252.135 206.327 249.054 207.015 246.191C208.689 239.212 219.512 238.026 219.901 230.304C220.204 224.341 214.976 219.523 219.766 213.697L219.782 213.697Z" stroke="#FF5722" stroke-width="0.320463" stroke-linecap="round" stroke-linejoin="round"/>
<path d="M225.635 221.084C228.007 218.204 232.69 217.609 235.696 219.8C237.256 220.934 238.335 222.653 239.95 223.698C242.222 225.182 245.15 225.108 247.829 224.65C250.507 224.192 253.163 223.411 255.862 223.625C258.562 223.838 261.41 225.401 262.069 228.034C262.711 230.571 261.17 233.297 261.844 235.834C262.937 239.948 268.948 240.979 270.403 244.981C271.139 247.006 270.434 249.375 268.959 250.943C267.485 252.51 265.356 253.337 263.216 253.598C260.697 253.907 258.002 253.508 255.717 254.613C251.997 256.419 251.071 261.181 248.85 264.665C246.754 267.953 243.004 270.302 239.114 270.088C235.225 269.874 231.519 266.709 231.297 262.828C231.174 260.726 231.963 258.468 231.003 256.61C229.808 254.286 226.725 253.942 224.165 253.451C222.044 253.032 219.917 252.272 218.317 250.815C216.718 249.357 215.742 247.086 216.243 244.979C217.476 239.847 225.424 238.977 225.724 233.297C225.953 228.913 222.102 225.371 225.628 221.092L225.635 221.084Z" stroke="#FF5722" stroke-width="0.286128" stroke-linecap="round" stroke-linejoin="round"/>
</g>
<defs>
<clipPath id="clip0_3_72">
<rect width="332" height="351.949" fill="white" transform="translate(0 239.373) rotate(-46.1374)"/>
</clipPath>
</defs>
</svg>
