<svg width="54" height="54" viewBox="0 0 54 54" fill="none" xmlns="http://www.w3.org/2000/svg">
<g clip-path="url(#clip0_3_1106)">
<path fill-rule="evenodd" clip-rule="evenodd" d="M42.3993 25.053C42.6036 26.6672 44.0953 27.8127 45.7243 27.6065C46.5457 27.5026 47.296 28.0787 47.399 28.8926L48.0712 34.2028C48.6395 38.6934 45.4153 42.8129 40.8835 43.3865L17.6389 46.3286C13.1071 46.9022 8.95615 43.7162 8.38776 39.2257L7.71563 33.9154C7.61261 33.1015 8.19569 32.3566 9.01714 32.2526C10.6481 32.0462 11.8073 30.5651 11.603 28.951C11.4039 27.3782 9.98228 26.3556 8.29772 26.5688C7.90287 26.6188 7.50621 26.5111 7.19136 26.2694C6.87651 26.0276 6.67221 25.6718 6.62296 25.2826L5.93289 19.7988C5.36452 15.3084 8.5885 11.1869 13.1203 10.6133L36.3589 7.67195C40.8908 7.09834 45.042 10.2863 45.6103 14.7768L46.2847 20.0887C46.334 20.478 46.225 20.8754 45.982 21.1857C45.7374 21.4983 45.38 21.7014 44.9832 21.7516C43.3542 21.9578 42.195 23.4389 42.3993 25.053ZM31.631 27.7203L33.6847 25.1672C34.0421 24.7265 34.1104 24.1346 33.8666 23.6262C33.6248 23.1173 33.1207 22.7977 32.5593 22.7907L29.2679 22.732L27.4542 20.0132C27.1429 19.5452 26.5996 19.2984 26.0379 19.3675L26.0339 19.368C25.4744 19.4388 25.0097 19.8132 24.8209 20.3445L23.742 23.4314L20.5747 24.3057C20.0271 24.455 19.6185 24.8901 19.5091 25.4435C19.4017 25.9963 19.6153 26.5525 20.0693 26.8906L22.6943 28.8515L22.5466 32.1122C22.521 32.6747 22.8144 33.193 23.3123 33.4636C23.5934 33.6137 23.905 33.6702 24.2086 33.6318C24.4407 33.6024 24.6676 33.5156 24.8677 33.3766L27.57 31.5044L30.6471 32.641C31.1807 32.843 31.7687 32.7267 32.1813 32.339C32.5984 31.9546 32.7534 31.3796 32.5885 30.8412L31.631 27.7203Z" fill="white"/>
</g>
<defs>
<clipPath id="clip0_3_1106">
<rect width="48" height="48" fill="white" transform="translate(0.176208 6.20386) rotate(-7.21372)"/>
</clipPath>
</defs>
</svg>
