<svg width="213" height="32" viewBox="0 0 213 32" fill="none" xmlns="http://www.w3.org/2000/svg">
<path d="M23.1813 19.2268C25.003 24.1624 30.4935 26.6888 35.4305 24.8713C40.3647 23.0411 42.8967 17.5562 41.068 12.6192C39.2448 7.67662 33.7627 5.15447 28.8187 6.97618C23.8789 8.80495 21.3567 14.287 23.1813 19.2268Z" fill="white"/>
<path d="M10.9883 25.4221C16.2544 25.4221 20.5234 21.1531 20.5234 15.8871C20.5234 10.621 16.2544 6.35205 10.9883 6.35205C5.72229 6.35205 1.45331 10.621 1.45331 15.8871C1.45331 21.1531 5.72229 25.4221 10.9883 25.4221Z" fill="white"/>
<path d="M12.614 15.7854C12.614 16.757 11.8246 17.5535 10.853 17.5535C9.87723 17.5535 9.08923 16.7584 9.08923 15.7854C9.08923 14.8153 9.87723 14.0287 10.853 14.0287C11.8246 14.0301 12.614 14.8153 12.614 15.7854Z" fill="#191825" fill-opacity="0.5"/>
<path d="M33.8628 15.7854C33.8628 16.757 33.0762 17.5535 32.1046 17.5535C31.126 17.5535 30.3408 16.7584 30.3408 15.7854C30.3408 14.8153 31.126 14.0287 32.1046 14.0287C33.0776 14.0301 33.8628 14.8153 33.8628 15.7854Z" fill="#191825" fill-opacity="0.5"/>
<path d="M5.61383 15.7854C5.61383 18.6761 7.96511 21.0231 10.8558 21.0231C13.7395 21.0231 16.0894 18.6761 16.0894 15.7854C16.0894 12.9017 13.7381 10.5532 10.8558 10.5532C7.96652 10.556 5.61383 12.9031 5.61383 15.7854ZM7.42001 15.7854C7.42001 13.8944 8.96493 12.3566 10.8587 12.3566C12.7496 12.3566 14.286 13.8987 14.286 15.7854C14.286 17.6819 12.7496 19.2226 10.8587 19.2226C8.96493 19.224 7.42001 17.6847 7.42001 15.7854Z" fill="#191825" fill-opacity="0.5"/>
<path d="M26.8654 15.7854C26.8654 18.6761 29.2139 21.0231 32.1032 21.0231C34.9883 21.0231 37.3353 18.6761 37.3353 15.7854C37.3353 12.9017 34.9883 10.5532 32.1032 10.5532C29.2153 10.556 26.8654 12.9031 26.8654 15.7854ZM28.6716 15.7854C28.6716 13.8944 30.2123 12.3566 32.1074 12.3566C33.9983 12.3566 35.5334 13.8987 35.5334 15.7854C35.5334 17.6819 33.9983 19.2226 32.1074 19.2226C30.2095 19.224 28.6716 17.6847 28.6716 15.7854Z" fill="#191825" fill-opacity="0.5"/>
<path d="M28.4518 5.97215C29.5561 5.56544 30.6858 5.36774 31.8014 5.33667C28.7624 3.97674 25.3224 3.2876 21.5109 3.2876C17.7291 3.2876 14.2382 3.99228 11.2006 5.29148C16.6982 5.40022 21.1677 9.70596 21.5533 15.133C21.6465 13.8874 21.9515 12.656 22.4895 11.4895C23.6743 8.90949 25.794 6.9522 28.4518 5.97215Z" fill="white"/>
<path d="M40.65 9.62262C41.1471 7.49446 42.7245 5.3649 42.7245 5.3649L35.6452 5.36066C31.6756 2.79755 26.8544 1.43762 21.5135 1.43762C15.9693 1.43762 10.9631 2.83003 7.01608 5.4115L0.380249 5.41715C0.380249 5.41715 1.9393 7.52271 2.44344 9.63533C1.15271 11.3907 0.385898 13.5471 0.385898 15.8885C0.385898 21.7335 5.14353 26.4883 10.9914 26.4883C14.334 26.4883 17.3151 24.9306 19.2597 22.5102L21.5178 25.8909L23.7928 22.4805C24.8166 23.7825 26.137 24.8389 27.6847 25.5548C30.2592 26.7382 33.1442 26.8555 35.8006 25.874C41.2869 23.8447 44.1042 17.7285 42.0749 12.2493C41.719 11.2848 41.2332 10.4078 40.65 9.62262ZM21.5121 3.28899C25.3236 3.28899 28.7637 3.97813 31.8027 5.33948C30.6856 5.36913 29.5573 5.56825 28.453 5.97213C25.7953 6.95219 23.6756 8.90947 22.4936 11.4853C21.9555 12.6517 21.6519 13.8832 21.5573 15.1287C21.169 9.70452 16.6994 5.39879 11.2018 5.28722C14.238 3.99226 17.7275 3.28899 21.5121 3.28899ZM17.9986 20.6249C16.4763 22.8703 13.9005 24.3502 10.9885 24.3502C6.31988 24.3502 2.52111 20.5487 2.52111 15.8899C2.52111 11.2184 6.32129 7.42385 10.9885 7.42385C15.6558 7.42385 19.4546 11.2184 19.4546 15.8899C19.4546 16.1751 19.3995 16.4434 19.3698 16.7188C19.2286 18.1494 18.7682 19.4895 17.9986 20.6249ZM35.0592 23.8673C32.9381 24.6468 30.6376 24.5607 28.5829 23.6131C27.1255 22.9381 25.9322 21.8803 25.0722 20.567C24.722 20.036 24.4141 19.4726 24.1868 18.8555C23.9284 18.1578 23.7998 17.439 23.7306 16.7146C23.5894 15.2459 23.8027 13.7603 24.4353 12.3834C25.3843 10.3287 27.0733 8.76542 29.1944 7.98025C33.575 6.36472 38.4512 8.6115 40.0696 12.9907C41.6865 17.3698 39.4383 22.2461 35.0592 23.8673Z" fill="#191825" fill-opacity="0.5"/>
<path d="M55.2323 2.98674L52.1283 4.05859C52.1283 4.05859 52.1283 7.77545 52.1283 8.10872C51.8035 8.10872 48.6882 8.10872 48.6882 8.10872V10.8243C48.6882 10.8243 51.7075 10.8243 52.0351 10.8243C52.0351 11.1774 52.0351 19.5431 52.0351 19.5431C52.0351 23.6865 53.4459 25.3867 56.9156 25.3867C57.7954 25.3867 58.6356 25.278 59.4787 25.0478L59.6157 25.0139L59.5775 22.198L59.3403 22.2884C58.6582 22.5243 58.1244 22.6401 57.7121 22.6401C56.0824 22.6401 55.478 21.7235 55.478 19.2494C55.478 19.2494 55.478 11.176 55.478 10.8286C55.8084 10.8286 59.4476 10.8286 59.4476 10.8286V8.10872C59.4476 8.10872 55.8099 8.10872 55.478 8.10872C55.478 7.77262 55.478 2.90625 55.478 2.90625L55.2323 2.98674Z" fill="#191825" fill-opacity="0.5"/>
<path d="M65.9647 10.8597C65.9647 9.90363 65.9647 8.10875 65.9647 8.10875H62.8156V25.0874H66.2585V16.5649C66.2585 12.9921 67.7596 11.0235 70.4795 11.0235C70.8735 11.0235 71.2562 11.0828 71.7222 11.2141L71.9453 11.2777L72.0583 7.92657L70.5769 7.8136C68.5815 7.81219 66.9702 8.88968 65.9647 10.8597Z" fill="#191825" fill-opacity="0.5"/>
<path d="M78.1945 8.10732H74.9352V25.0874H78.3781V8.10732H78.1945ZM74.6019 3.13221C74.6019 4.26195 75.5227 5.17846 76.6496 5.17846C77.7793 5.17846 78.6973 4.26195 78.6973 3.13221C78.6973 2.00388 77.7793 1.08314 76.6496 1.08314C75.5227 1.08031 74.6019 2.00388 74.6019 3.13221Z" fill="#191825" fill-opacity="0.5"/>
<path d="M90.5371 7.70911C88.1745 7.70911 86.1876 8.82755 84.863 10.8625C84.863 10.0491 84.863 8.10452 84.863 8.10452H81.7152V32H85.1609C85.1609 32 85.1609 23.6554 85.1609 22.7375C86.4036 24.4279 88.1858 25.3571 90.4044 25.3571C94.7567 25.3571 97.5683 21.7857 97.5683 16.2712C97.5683 11.1506 94.7412 7.70911 90.5371 7.70911ZM89.5754 22.5723C86.8513 22.5723 85.1595 20.2436 85.1595 16.5028C85.1595 12.8918 86.9445 10.5589 89.7067 10.5589C92.3687 10.5589 93.9602 12.7704 93.9602 16.4674C93.9616 20.2309 92.2797 22.5723 89.5754 22.5723Z" fill="#191825" fill-opacity="0.5"/>
<path d="M107.631 7.70911C105.526 7.70911 103.681 8.10734 101.989 8.92076L101.885 8.9716L101.922 11.9103L102.193 11.7578C103.81 10.854 105.341 10.3922 106.734 10.3922C109.228 10.3922 110.66 11.8214 110.66 14.3195C110.66 14.3195 110.66 14.3915 110.66 14.465C110.357 14.465 108.69 14.465 108.69 14.465C103.022 14.465 99.9037 16.5183 99.9037 20.2408C99.9037 23.2304 102.155 25.3204 105.377 25.3204C107.748 25.3204 109.583 24.3884 110.89 22.6344C110.89 23.3165 110.89 25.086 110.89 25.086H114.001V14.811C114 10.1013 111.858 7.70911 107.631 7.70911ZM110.655 17.9192C110.655 20.8438 108.895 22.7361 106.172 22.7361C104.505 22.7361 103.341 21.6403 103.341 20.0727C103.341 18.0124 105.311 16.8812 108.887 16.8812C108.887 16.8812 110.359 16.8812 110.657 16.8812C110.655 17.1453 110.655 17.9192 110.655 17.9192Z" fill="#191825" fill-opacity="0.5"/>
<path d="M128.623 0C128.623 0 128.623 9.46584 128.623 10.412C127.353 8.64678 125.587 7.71192 123.317 7.71192C119.105 7.71192 116.275 11.1802 116.275 16.3347C116.275 21.6445 119.146 25.3529 123.248 25.3529C125.678 25.3529 127.574 24.2768 128.887 22.1853C128.887 23.0312 128.887 25.0888 128.887 25.0888H132.07V0H128.623ZM124.141 22.5031C121.517 22.5031 119.887 20.2154 119.887 16.5324C119.887 12.8452 121.531 10.4614 124.078 10.4614C126.923 10.4614 128.62 12.7294 128.62 16.5324C128.623 20.1659 126.869 22.5031 124.141 22.5031Z" fill="#191825" fill-opacity="0.5"/>
<path d="M147.455 8.1073L142.573 17.9121L138.059 8.1073H134.18L142.501 25.0874L151.047 8.1073H147.455Z" fill="#191825" fill-opacity="0.5"/>
<path d="M156.059 8.10732H152.799V25.0874H156.246V8.10732H156.059ZM152.47 3.13221C152.47 4.26195 153.389 5.17846 154.517 5.17846C155.651 5.17846 156.565 4.26195 156.565 3.13221C156.565 2.00388 155.649 1.08314 154.517 1.08314C153.39 1.08031 152.47 2.00388 152.47 3.13221Z" fill="#191825" fill-opacity="0.5"/>
<path d="M160.283 12.4611C160.283 14.8491 161.924 16.1074 164.954 17.5902C166.865 18.5293 167.863 19.0828 167.863 20.406C167.863 21.7631 166.637 22.6401 164.734 22.6401C163.388 22.6401 161.894 22.2616 160.414 21.5344L160.163 21.4101L160.051 24.4039L160.165 24.4463C161.58 25.0097 163.067 25.2851 164.604 25.2851C168.815 25.2851 171.533 23.2784 171.533 20.173C171.533 17.5845 169.812 16.2698 166.828 14.8774C164.643 13.8507 163.727 13.2533 163.727 12.1646C163.727 11.1337 164.746 10.4615 166.322 10.4615C167.746 10.4615 169.136 10.7778 170.45 11.4048L170.699 11.5192L170.848 8.59033L170.712 8.55079C169.285 8.12713 167.877 7.91389 166.522 7.91389C162.791 7.90824 160.283 9.73843 160.283 12.4611Z" fill="#191825" fill-opacity="0.5"/>
<path d="M182.277 7.70911C177.102 7.70911 173.89 11.1167 173.89 16.596C173.89 22.078 177.105 25.48 182.277 25.48C187.475 25.48 190.702 22.0766 190.702 16.596C190.702 11.1181 187.472 7.70911 182.277 7.70911ZM182.306 22.6712C179.447 22.6712 177.526 20.2168 177.526 16.5635C177.526 12.8904 179.447 10.4276 182.306 10.4276C185.212 10.4276 187.089 12.8381 187.089 16.5635C187.089 20.2747 185.215 22.6712 182.306 22.6712Z" fill="#191825" fill-opacity="0.5"/>
<path d="M197.053 10.8597C197.053 9.90363 197.053 8.10875 197.053 8.10875H193.904V25.0874H197.347V16.5649C197.347 12.9921 198.84 11.0235 201.564 11.0235C201.955 11.0235 202.335 11.0828 202.792 11.2141L203.025 11.2777L203.133 7.92657L201.657 7.8136C199.67 7.81219 198.062 8.88968 197.053 10.8597Z" fill="#191825" fill-opacity="0.5"/>
<path d="M211.346 7.35604C211.911 7.92797 212.207 8.68773 212.207 9.50538C212.207 10.3597 211.888 11.1252 211.3 11.6886C210.688 12.2704 209.928 12.5825 209.134 12.5825C208.305 12.5825 207.543 12.2563 206.95 11.6434C206.383 11.056 206.063 10.3047 206.063 9.50256C206.063 8.6849 206.389 7.89267 206.999 7.29108C207.571 6.73045 208.307 6.42542 209.134 6.42542C209.983 6.42683 210.755 6.7488 211.346 7.35604ZM207.38 7.69355C206.883 8.19064 206.618 8.83036 206.618 9.50538C206.618 10.1635 206.863 10.7693 207.338 11.2522C207.814 11.7493 208.445 12.0176 209.121 12.0176C209.78 12.0176 210.412 11.7649 210.901 11.2904C211.381 10.8286 211.645 10.1959 211.645 9.50397C211.645 8.82753 211.399 8.21323 210.933 7.74298C210.445 7.24589 209.825 6.98464 209.134 6.98464C208.454 6.98464 207.856 7.22753 207.38 7.69355ZM209.191 7.75145C210.154 7.75145 210.648 8.10026 210.648 8.7315C210.648 9.16646 210.39 9.50397 209.931 9.64236L210.688 11.1237H209.662L209.031 9.7864H208.764V11.1237H207.835V7.75004L209.191 7.75145ZM208.757 9.23707H209.081C209.494 9.23707 209.693 9.09161 209.693 8.80211C209.693 8.47166 209.484 8.33609 209.031 8.33609H208.757V9.23707Z" fill="#191825" fill-opacity="0.5"/>
</svg>
