<svg width="20" height="20" viewBox="0 0 20 20" fill="none" xmlns="http://www.w3.org/2000/svg">
<path d="M15.9189 12.3195C15.6599 12.5705 15.5409 12.9335 15.5999 13.2895L16.4889 18.2095C16.5639 18.6265 16.3879 19.0485 16.0389 19.2895C15.6969 19.5395 15.2419 19.5695 14.8689 19.3695L10.4399 17.0595C10.2859 16.9775 10.1149 16.9335 9.93989 16.9285H9.66889C9.57489 16.9425 9.48289 16.9725 9.39889 17.0185L4.96888 19.3395C4.74988 19.4495 4.50188 19.4885 4.25888 19.4495C3.66688 19.3375 3.27188 18.7735 3.36888 18.1785L4.25888 13.2585C4.31788 12.8995 4.19888 12.5345 3.93988 12.2795L0.328876 8.77949C0.0268757 8.48649 -0.0781242 8.04649 0.0598758 7.64951C0.193876 7.25351 0.535876 6.96451 0.948876 6.89951L5.91888 6.17851C6.29688 6.13951 6.62888 5.90951 6.79888 5.56951L8.98889 1.07951C9.04089 0.979512 9.10789 0.887512 9.18889 0.809512L9.27889 0.739512C9.32589 0.687512 9.37988 0.644512 9.43989 0.609512L9.54889 0.569512L9.71889 0.499512H10.1399C10.5159 0.538512 10.8469 0.763512 11.0199 1.09951L13.2389 5.56951C13.3989 5.89651 13.7099 6.12351 14.0689 6.17851L19.0389 6.89951C19.4589 6.95951 19.8099 7.24951 19.9489 7.64951C20.0799 8.05049 19.9669 8.49049 19.6589 8.77949L15.9189 12.3195Z" fill="#FACD49"/>
</svg>
